<mxfile host="app.diagrams.net" modified="2023-07-16T20:01:15.287Z" agent="Mozilla/5.0 (Windows NT 10.0; Win64; x64; rv:109.0) Gecko/20100101 Firefox/115.0" etag="s6xatM2Wfriq5U55E0mQ" version="21.6.2" type="device">
  <diagram name="Page-1" id="obGyLkr7fOhK8FYAq3O-">
    <mxGraphModel dx="1050" dy="1630" grid="0" gridSize="10" guides="1" tooltips="1" connect="1" arrows="1" fold="1" page="1" pageScale="1" pageWidth="850" pageHeight="1100" background="#000012" math="0" shadow="0">
      <root>
        <mxCell id="0" />
        <mxCell id="1" parent="0" />
        <mxCell id="kfZYuw6HUx6iTTQ8oYZk-1" value="" style="shape=image;imageAspect=0;aspect=fixed;verticalLabelPosition=bottom;verticalAlign=top;image=data:image/png,iVBORw0KGgoAAAANSUhEUgAAAg8AAAKwCAYAAAAfuZwCAAAAAXNSR0IArs4c6QAAAARnQU1BAACxjwv8YQUAAAAJcEhZcwAAEnQAABJ0Ad5mH3gAAKx+SURBVHhe7N0FeNRKFwbgg7u7u7c4FP1xd3d3d3e3i7u7S/Hi7lCguLtDcbf8c05ny7YUaKCFtvu99+llZ5LdZrebycnMySSQoRAAAACANwXW/wIAAAB4C4IHAAAAMAXBAwAAAJiC4AEAAABMQfAAAAAApiB4AAAAAFNwqeYf+vLlCx06fJiOHXMm5+PO8u+1a9coWLBgFDx4cL0W+KTPnz/Thw8fKEaMGJQxY0bKmCEDZcqUkXLlzEnhw4fXawEAgG9B8PCbHj1+TLNmzabpM2ZQtGhRKZtDNnUgUwcxdTBLmTIlBQkSRK8JvuXWrVt0/PgJCdqcnY/LvxUrVKRmTZuQnZ2dXgsAAHwaggeTnri6Urdu3WnturVUvlx5OVClTZtWL4V/6eGjRzRz5iwJ6BIlTEgjhg+XHgkAAPBZyHkwwdFxtToYZaYoUSLTxfMXaPKkiQgc/JAY0aNT925d6cqli9SgQX0qW64c9enblz5+/KjXAAAAn4CeB2948+YNNWnWjFxcTtGM6dPIIWtWvQT8Mu6JaNGyJV27dp0WL1xAKVKk0EsAAOBPoOfhF16/fk2ly5SlkCFC0tHDhxA4+CPcE7Fi2TJq1bIFFS5ajM6dO6eXAADAn0DPw0+8evVKAodUqVLRxAnjKVCgQHoJ+DfLli2nTp0708YN6ylNmjS6FgAAfgeChx/gSzALFykqB5qxY0YjcAgAli9fQR07daJ9e/dQvHjxdC0AAJiF4OEHBg8ZSvv376f169YicAhAho/4j3bs2EFOGzfg7woA8JsQPHjh5EkXKlmqFB05fIhix46tayEg4B6lvPnyU40a1alpkya6FgAAzEDw4AnPXpjFIRt17tiRqlWrqmshILl8+bIEEAf276MECRLoWgAA8C5cbeHJmjVrKVLEiAgcArBkyZJR/fr1aNz4CboGAADMQM+DJ/nyF6DWrVpRuXJldQ0ERHfv3qVMWbLQlUuXKGzYsLoWAAC8Az0PVk6cOEm3bt+m0qVL6RoIqOLEiUN58uShhYsW6RoAAPAuBA9W5sydS40bNcJNrWwEJ0zy3xwAAMzBsIWVrNmy0YTx4ylrliy6xv/iM+rdu/dQuHDh5PbVkSNHolatWlG0qFH1GiC39Y4Vmx7cu0shQ4bUtQAA8CvoedDev39Ply5dpnQB4EZXu3bvpgULFtKUyZNo5H8jqE+f3rRs+Qq5TNFi565d+pF5f/JcvyREiBCUPHkyOnX6tK4BAADvQPCguZw6RSlTppADin+3ZcsWihQ5EgUO7Pbn5d6G3r16ymN29uxZmjxlii6Zw7ck79evvy75f5kyZiJnZ2ddAgAA7wjSV9GPbdrmzZvpy+cvVKpkSV3jf71+/Yb69e9PL1++pBzZs1Pw4MEpTpy4FC5cWLpy5QrVqlOX7t27R8+fv6BkSZPSZ/W+BwwcQJcuX6ZRo0erumQULVpU2rBhA3Xr0ZNSpUxJtdVzeEbG/v0HqEDLhT5+/CSXtMaIEUP/Vv/pzp07dObMWSpRvLiuAQCAX0HPg/bq1WsKHz6cLvlvZcqUpnZt29DYceMpjZ09zZo9myJGjCDj+ilVIFC3Tm1KmiQJ9ejejWLFikVdu3Wj0KHDULOmTclerd+rd2/69OkTBQkalNavX0+HDh+mChXKyxUK7dq1pQgRIspz7e3t9W/0v8KHD0+v37zWJQAA8A4ED9rHjx/lDD2gGDZ0KO3auYNixY5FTZs1p0KFi0hPg1dq1apJVSpXohcvXtDDhw/Ves8l0EifLp0sr1a1qlyFki9vXikHJCGCh5C/PQAAeB+CB40Dh4ByEHn69Jn8y0MWB/fvpwnjx0nvwbDhw6TeM04SXbJ0KS1eskQSCD1fgBOQL1398PFDgAoaAQD+BgQPGucD8NBFQLBs+TIZdmCcp8C9BjVr1KALFy5KnWc1atai+PHjy7wHESJE0LW2gfNCwobBDJMAAGYgeNDSpEkjiYABwcuXr2jEfyN1iejr168yHFG8eDEpBwsWjB4+eiiXp968eVMuVXzx4qVcynnkyFF6p+o5sdLSA8E3C7MIGjSoev0X8tyLF70ORvyTU6dOU+rUqXQJAAC8A8GDxl33589fCBBDF3ylxNu3b6htu/bUuUsXql23LmXNmpUaNmggy8uULk3Bggajrt26S8Lk0MGDafyECdSyVWsqWbIEvXnzhs6cPUur16whB/W8WbPnqNd7K8/lcjaHbFRPvVa0aNGlzj9zPu5MmTNn1iUAAPAOzDBpJYuDA02eOEkdTDLpGgjIOFCMHjMWZpgEADAJPQ9WHLI6yOyMYBs4iTRFiuQIHAAATELwYKVO7do0fcYMyRGAgG/a9OlUq2ZNXQIAAO9C8GAlS5bMFDVqFHJyctI1EFA9ePiQtm7dSrVr1dI1AADgXQgePGnZvAVNnDRZlyCgmjFjJlWqWElmmAQAAHMQPHjC0zBfu35dpmWGgOn27ds0efJkatO6la4BAAAzcLWFF/YfOEDVa9Sk487HKErkyLoWAoriJUpS3rx5qXOnjroGAADMQM+DF3LmyEFVq1SmVq1b6xoIKDghlmeV7NC+na4BAACz0PPwAzyDYo5cualSxYrUrWsXXQv+GV+GW6NGTdq+bavcXRQAAH4Peh5+gK/9d9q4QW4WNWSo1zeUAv9jz969EjgsWbIYgQMAwB9C8PATMaJHp61bNksAMWjwEF0L/g33OFSrVp0WLVpIuXPl0rUAAPC7MGzhDQ8fPaLyFSpQpIiRaOqUyRQnThy9BPwynn66X//+NH/+AvUzj/L87396CQAA/An0PHgD90Ds2bWLcuTIQQ7ZstOChQv1EvCrTp50oWw5ctLlK1fI2fkYAgcAAB+EngeTTp06RY2bNqV3795T82ZNqWaNGhQmTBi9FP4l/io7bdpEkyZNJhcXFxo+bBhVq1ZVLwUAAJ+C4OE37d6zhyZOmkR79+ylChUqUPbs2ShzpkyUPHlyChQokF4LfNv9+/fp2LFjdMzZmZYuW06RIkWkFs2by1UyIUKE0GsBAIBPQvDwh3i2wpWrHOnosaPqIOZMT58+pRQqgODeCP9y8Hr37i09cXWleHHj6Rq/7dOnT2qb39H169fp8+fPlEkFbXwb9SJFipBD1qx6LQAA8C0IHnyYqwoerly5Qm/fvqUPHz5IV7pfx2fuTps2U6+ePXSN38W9OsGCBaNQoUJR3DhxKH78+HoJAAD8LQgegDY6OdHUqdNozWpHXQMAAPBjuNoCAAAATEHwAAAAAKYgeAAAAABTEDwAAACAKQgeAAAAwBQEDwAAAGAKggcAAAAwBcEDAAAAmILgAQAAAExB8AAAAACmIHgAAAAAUxA8AAAAgCkIHgAAAMAUBA8AAABgCoIHAAAAMAXBAwAAAJiC4AEAAABMQfAAAAAApiB4AAAAAFMQPAAAAIApgQxFPwYbceDgQbpy5YouEZ06dYp27tpNbVq30jXqixEoEFWrWpWCBg2qawAAANwgeLBBe/bupYKFCuuS1ypVqkgL58/XJQAAgG8QPNioEiVL0dZt23TJoyBBgtCpkycoWbJkugYAAOAb5DzYqP79+ulH36tdqxYCBwAA+CH0PNiwylWr0urVa3TJTfDgwen82TMUL148XQMAAOAReh5sWL8+fSQx0lrTJo0ROAAAwE8heLBhqVKlohrVq+sSUZgwYahz5866BAAA4DUEDzaud6+eFCxYMHnMl2pGjxZNHgMAAPwIch6AWrdpS0uXLaWL5y9QxIgRdC0AAIDX/Gzw8Pr1a/r69asugW968PAhrVu3jho1bKhrwLfxEBFfEgsA4B/5yeBh7759VKRoMQoVKpSuAQg4Pn/+TCVLlsAkXADgb/nJ4GGjkxNNnTqN1qx21DUAAQe+3wDg3yFhEgAAAExB8AAAAACmIHgAAAAAUxA8AAAAgCkIHgAAAMAUBA8AAABgCoIHAAAAMAXBAwAAAJiC4AEAAABMQfAAAAAApiB4AAAAAFMQPAAAAIApCB4AAADAFAQPAAAAYAqCBwAAADAFwYM3XLp0iVatcqSTJ12kfO/ePfkXfNezZ89p/IQJ9PDRI10DAAB+AYKHX+jVuzdNnjKVYsSMQQcOHiCH7Nlp3fr1eunPvXv3Tj/yv/7VezAMgxxXO1KHjp3o2dOnuhYAAPwCBA8/cevWLZo3bz6NHjWScubIQc2bNaNuXbrKge1X9h84ID/+3Yj//tOP/q5AgQJRvbp1dQkAAPwSBA8/wd3mjx4/pm3bt+saorJly1DsWLF1yc3Vq1fpyNGj9OXLFynzcxo1bkLv1Vn727dvpc4aBx889MH/HjvmTK6ezqxfvHhBR48eo/Pnz+saN/cfPJDXu3z5Mr18+VLq3r9/T8ePnyAXl1P09etXqWP8Go+fPJGeA/4dr1+/lvrnz1942FaLV69e0YGDB2XbLZYtW04LFi6SZZ8/f5a6T58+0aHDh+nmzZtStuAyv+bZs2dlm6zxNvNr8I9lGy1li4sXL9LhI0fc3xfjAMLi48ePsr6lJ4R/B5e53tq5c+fk87AO8N68eSOfJ7+3p0+f6VoAAPhdCB5+Il26tJQ7Vy4qXaYstWvfwf3AU7p0KfmXD6St27Sl06fP0IYNGyht+gxygN+xfQe5uj6hzVu20saNTrKuBQcEuf+Xh7p060b1GzSkOvXqUeIkSd0DFD7IVa1WXQ6cPXv3oeYtWsoBd+y48bIeD6GUUtvD3fm3b9+mosWK07v372juvHlUuEhReY3169dT4qTJaMaMmdSnb1/q1r075ciVm5w2baLOXbpQm7ZtqULFSrIu43yO8RMm0sMHD+l/efLSnLlzJc9gz9699EodzGfPmUtXrlwhZ+fj8lpPVbBTtXp16t6jhwQG/DuSp0xF02fMkO0ZPmKEfmU3e/fto/gJE6nn9qAPHz7IgX3c+Ak0ctQoCTj4M9i1e7f8/pSpUktw5NkjtT31GzakcuUrSJnfe978Baj/gAFS5uCoabPmdP3GDZo1ezblzJ1bggsOAHmd4MGD0+jRo2nM2DGyPgAA/AHVkPs5GzZuNNQBW5f+LXVQMpo1b2GECBXaiB4zpjFx0iRDHcxl2bTp0w11oDXUQUp+kiZPYfTs1UuWJUmW3Ni6bZs89qxT585Gzly55Tnq4CnvNXPWrLJs8JChRpeuXeXx9h07jISJk8hjXo+3QR3oDXXANtRBUR6XLVdelt+9e9cIFiKkbC9TgYwxesxYeawO2Ea4CBGNpUuXSfnWrVuy7vPnzw11Vm4UL1HS/T0MGTrMiBkrtvH582dj85YtRrIUKeU5rFDhIvIcXm/16jVG8JChDHUQlx9+vSNHjhovXrxw3wZrbdq2M2rWrq1LhqECDtku/okRK5ahAjOpz5M3nzF7zhx5zPh1VcAlj/mzL1K0mDxmDRs1Nnr07CmP+/Xvb2zavFm2jbchQqTIxqTJkw1Hx9VG7bp1ZR22ZMlS/ejf8UvfbwCA34Geh18IEyYMTZo4gQ7u309pUqehtu3aU9du3WTZRqdNdEOd6a5fv0F+BvTrR8WLF5dlPxMkSBBKmTIlhQ0blgIHDkwNG9SXYQfuXu/WtQv17tWL5s2fTxs2bKQveriA1+OflClTUKhQoShixAhUrlxZWrZ0ifQczJu/QNazDC8ECxaMYsWMKY/5rDtM6NAUO47bcEv48OHl33fv30uvgDrgur+HhAkS0GjdI2Dtzp07dOXqVXJS75nX4+GDueoMP0TIkBRU/S7G28avzZ+ZZ82bNSUVcNCDhw9laCJUqNCyXfxzT70255dwbwQPLVjegxkbnZzowoWLsm3c2zNl0iTKni07ZciQXsp58+WX3p0qVSrrZwAAwO9C8PAT9+/fdx/b54PQ9m1bqX69ejRp8hQ5uL5VB/vYsWNT1apV3H+yZM4s65sRP34CCQw4qOBhi2rVa1CB/Pklv+Jn+IDLQyrJkyej+vXr6VrvU8EjvXn9ht6qQMD6PVSsWEEO6tY4sHn+/Llsk/W6kSNF0mv8XPLkySlXzpwylLJk6VKqXq2q1PM2tGjZSq5kadWyBcVRn+fveK3eR9KkSTxsm51dGkqggqFjRw5TwoQJqWSp0jLEAgAAfwbBw0/wOLqjOlu2kCsA6tVVZ80h5XHGjBlowsRJkpzI+N8FCxfKY17OB8YfsU5udH3qKgfWkOosnvMISpUqSXHixNFLf2z4iP/kAGlnZ6drzOP3cOrUKXXG/u3y0ylTp0pwZP0eEiVKREGDBpHcCwvuSTAz50WL5s0kL4J7MeLFiyd13PPBvQbNmjaV3/czQYMGlTwTiw8f3fInGL+PkSNHSU4F45yNlStX0c5duyhatGg0Z/YsWrl8Gf2n1gEAgD+D4OEXONmOAwI+KPFVEQMHDqKePXpKTwFfuvnU1ZXs06ajBg0bUdly5aloUbekRR4ymL9ggSTveWXf/v2SXMkHw3HqgNynT2+p56CBezZ42IKvdnimzvZHjR4jgQkf0G/dvi3rMV53yZKlsu7UqdOkbtTo0ZLYyb0ET5+5XcXBSY3v1fY/f+aW8PlM/8tlPiOvU7s2VaxchcpVqEhlypajECFCSC9IjOjR6YHaxgkTJ5Lz8ePUvVt3mfeiQMFCVFM9Z9/+fRIE8GfAOInxZ3hIh3s0cuXKpWuIokWNSq7q+QPU58rDFvfu35fhIL7yg3t+2FO9vWnTppUrMji44c/k7p27tHv3HrnComP79uSigiA79bdo2Kgx1a5dh0qUKK7e43Nq2aq1fHYcADlkzSqvBQAAvy+QOnP79aQFfxmfifLBcM1qR13zb/Clji/VQZsz+Pergz33FhQrVoyyOTjoNdwuy+S5IPjgVLtWTYoVK5bU89n15i1bqHq1apKjYI2vWODXzJc3L717956KFysq3fqMD/QzZ82SMg9dTJs+nSpXrkyHDx2iN2/eykE9b768FCVyZNkeDk4ihI9AFSqUl2CFezB4m27fui1n6tmzZ6OTLi706uUrOXBnz5Gdjhw+LL+Xg4SSJUvIGf/atetUgOBMefLkoYIFCsi2MH4P/Dq8LYyvwNi6dSvZ29nL8AYHP5s3b5FLJ3m9IkUKe5nzYLF12zZ5feteBn5N7v2oWrWqXNXBwUQJFWhs2rxZff4vZTsLFMgvOSLr1q1T7+cU1a9XV67+4AAqU6aM8jocvMxfsJBChw6t/ha1KHLkSHT9+nU6ceIk3bl7l0KGDEE1qlf/6fb9DX7l+w0A8LsQPPwDHDw8fvyEZkx36y0A24LgAQD8Owxb/AOvXr2ml6++TYYEAADgnyB4+Mt4Bka+cqNwoUIyEyIAAIB/g+DhL0uTJg01qF+fGjZoIFcIAAAA+DcIHgAAAMAUBA8AAABgCoIHAAAAMAXBAwAAAJiC4AEAAABMQfAAAAAApiB4AAAAAFMQPAAAAIApCB4AAADAFAQPAAAAYAqCBwAAADAFwQMAAACYguABAAAATAlkKPqxn+G0aRO1at2GihUtqmvAN715+5YeP3pECRMm1DXgm27dukWBAgWi1Y6rdA0AgP/iJ4OHly9f0tJly+jLly+6BnzTmbNnaf++/dSkSWNdA74tQ4YM5JA1qy4BAPgvfjJ4gL9ro5MTTZ06jdasdtQ1AAAAP4acBwAAADAFwQMAAACYguABAAAATEHwAAAAAKYgeAAAAABTEDwAAACAKQgeAAAAwBQEDwAAAGAKggcAAAAwBcEDAAAAmILgAQAAAExB8AAAAACmIHgAAAAAUxA8AAAAgCkIHgAAAMAUBA8AAABgCoIHAAAAMAXBAwAAAJgSyFD0Y7AR06ZPp+kzZugS0cuXL8nV1ZUSJUqka4iiRY1Ga9espqBBg+oaAAAANwgebNCDhw8pRcpU9O7dO13zvcGDBlHHDu11CQAA4BsMW9igmDFiUJPGjXTpe1GjRKGmTRrrEgAAgEcIHmxU+/btKVSoULrkES8LGzasLgEAAHiE4MFG/aj3Ab0OAADwKwgebJhXvQ/odQAAgF9B8GDDPPc+oNcBAAC8A8GDjbPufUCvAwAAeAeCBxtn6X1ArwMAAHiXn5zn4YmrK82YMZO+fPmia8A3vX7zhs6dO0tZs2TVNeDbHByyUsECBXQJAMB/8ZPBg9OmTdS+Q0eqUrmSrgFfx1+DQIF0AXzTlatX6fWr17TacZWuAQDwX/xk8LDRyYmmTp1Ga1Y76hqAgAPfbwDw75DzAAAAAKYgeAAAAABTEDwAAACAKQgeAAAAwBQEDwAAAGAKggcAAAAwBcEDAAAAmILgAQAAAExB8AAAAACmIHgAAAAAUxA8AAAAgCkIHgAAAMAUBA8AAABgCoIHAAAAMAXBA3zHr92l3Q/eNR4AwKbZdPDw8uVLGjtuPLVp244GDBxEw0f8R0ePHqN169bpNf6dN2/eUMzYsenQ4cO65ueKFC1Go0aP0aXvpUpjRytWrNQlr+3YuZPy5M1H06ZP1zX/lovLKSpfsRK179BR13jfRicnSpAosS4BAIBPstng4ebNm5Q5qwMlTpSQxo4ZTb169qAGDepT9x496MjRo3otn3HmzBn69OmTLnlPmDBhaPrUqZQ+XTpd83P9+vWlShUr6BLRiRMn9SM348eNpfz58+uS1/Lny0cfP330M2f66dKlpUgRI9KXL190zc9Zv+dcOXPS1CmTdQkAAHySTQYPnz9/pmIlSlKN6tWoVKlSupYoSuTItHHDegoRIqSu+XN8IO7arbv8TrN420KG9N62ZHNwoHjx4snjFy9eUP8BA+SxRcECBShy5Ei69GNhw4TVj/yGsGG9tz3HjjnT4iWLdYkofPjwVLRIEV0CAACfFKSvoh/7GZevXCFnZ2eqVrWqrvFZGzZsoCnqrH7cmDEUPXp0XesmSJAglDBhAjnzX7t2HW3bvp1evHxJI0b8R3ny/E/WWbBwIS1ctIgOHjxIGTNkUMFGCHr9+jWNGz+BTpw8QStXrqS0adNSUPVazZq3oFWOjhQsWFD6+vUrJUqYkM6dO0dz581XP/MoePDglDRJEnlda7du3aIxY8dSfBUQRFRn37wdixYtphQpUlDPXr1pz949lCNHDvW6wSRYmD1nDj1+/Fi2u2q16nT69Gl6//6Den/R6KsKYCZNnkJBgwaluHHi0Lt372j8hIl00uUkLVu2jNKkTi0HWzZ//gJKnToVZc6cWcoWz5+/oBkzZ6rfF5ycNjnRKPXZhVDbnjx5clnO723+ggW0fcdO2rR5EyVJnJgiRIggy3goiJclSZqEunTpSrt276J06dKRoZ6zZOlS2rjRibJlc6Anrq40T30mJ11cKFPGjPLcTZs2y7/FihWVf502baL16zfQmjVr6JMKyJIlTUr7DxygatVr0KuXr+j+gweUJUtmGe6ZOm0aFbDqbVm2bDlt2bpN/v5x48alKFGiSFC3Zs1atd3bVXAVWQK9c+fPU47s2SlQoED6mT7Lt7/fAAC+Tp0Z+zkbNm40Spcpq0s+r0nTZkbY8BF0yWtXr141qlSrZqTLkNGYNXu2UaNWLUMdmIzGTZoaFy5cML58+WJUq1HDKFuuvKxfp249Y8zYcfK4YaPG8jvYnTt3jGAhQhpv376VsjqoGy1btVbHza/GpUuXZDt27toly6ytW7dOnqcOvMbdu3eNVq3bGAkTJzHGT5hgHDly1EiWIqUxavQYWVeddRspUqV2Lzs6rjbSZ8wkj9neffuMKNGiGytXrpIy//4BAwfJ43btO8h7syhYqLAxecoUXfpmx86d8hpVq1c3VBAh2xM8ZCj3bW/QsJF8TozrYsWOY1y7ds148PCh0b5DRyNBosRGj549DRV4ybZmz5lT1j1//ry8TxV8SXnJkqWGfbr08pi1btNWfhc7fOSIkTxlKvnsTp50MUKHDWeowEmW8Xr8e9jDR4/kd8VPkFDKrHuPHsaQocPkMT83RqxYxokTJ+XvXLFyZSNTlqzGtOnTjT1798r7XL16jazrG3z7+w0A4Ntsctji/fv30lvwM4nVmXPmTJnlTL1e3bq0QJ0Rv33zho6pM0Z1gKGZs2ZJF//Ro0clubFgwQJUSP3wmSx3tasDmH4lj6ZMnUahQ4eSs/hdu3dT/PjxacuWLXrpNyVLlnTfxtixY8uZMJ8pt2zRQs6sy5QuRVfUGSzLlCkjJU6USB57hcf/Y8SIoUtE/8udm0oULy65BLwtjx56va3W8uXNK700FcqVpwb169O4sWMoQ4b0NG/efLp48SItX7FCPieWN08e6ZHgZNQY6jl58/xPej0G9O9PNapXpymTJ8kww9mzZ78bluDt+ZFYMWNS2zatpUcgZMgQkkfy7NkzvfSb6NGi0f/+59ZLxB49fizb0rxZUylzLkVu9RkMGzFc/s4ZM2SkRIkSUqOGDSl3rlyUR20/9w4AAIDXbDJ4SJw4kRzwubv/Z/ggFcIq5+DUqdOUMKHbQYZ/pk2dQndu35KhgsqVKtG27TtkOCBo0CDSJe+VU6dOSS6D5TXOnj5FgwcN0ks9su4299yFzsMrPFRg8asuduvl5cqVpUOHD9HoMWOl3vp1foUP2hacYHn37l1yPn5cBTrBda0bB4es8l4teHjGsg0czPBwyx31XDM4pyN9+vTUt18/unL1qtT9aNut36+Liwt9/PjRQ/5INodsdPr0GXns+bPjv593kzQBAGyRTQYP5cuVk4PDho0bdY1H169f1488ChsuLO3du0dyBiz47J9fq1LlKhQlSmRq17YNxY3rlrjolXDhwn3X03DhwgX96O+oXbcuBQ4cmDp2aC/B0O/i3gQ+oIcLG1YFYi/p1atXeolbcBM7Tmxd8oifxwdszufwfOD+Gc536Ny5C/Xu1ctUMiR/5uzevXvyL5PtixVLlwAAwAybDB7s7OyoTetWciC6du2arnXDl/tdunxZlzye2XKXNh90q9esJQEGP3fipMlyINq+YwdF1AmCHFDw8MXjJ08osFrGXr1+LWfppUuXkjP+efPnyzwTnDRpGX7wzDAM+mq4/X5+7Jl1nayrtzVIkMCSwMn4d1pYlu+QbY0oj623lfE6PzqbZ8+temtOnnSh6tWrySWgsdSBeM7cuXoJ0fHjJ6hhgwa6pN6/eq8WnDDKSZmpUqWiMPrqDr50lnGi49u3b+Uxs96eXbt2SSDAf4PL+m/EgdyzZ8/lb8DBC/9wj5L155E5Uyb5XbNmz5Yycz7u7L59Xn22AADwYzYZPLBhQ4dS7969qEy58lSnXj3pCh/x30g5kBQpXFgOZkePHaWrV69KbgLjHIQlixfLvA0pUqWWCYxat2opyzgYqVu/AbVq3YaSJ09GR44eocOHDlG0qFHlMsny5SuQq6urHLDq1qlDTZs1p1hx4tKlS5ckv8GzVascZY6DLVu20s1btyQ44aGW3Xv2SI7BmTNnJXjhAzEHPA8ePpSrJ/jsOquDgxxMq9esSUHUWT7naHCeB1+V4Pr0qdrm1tS8ZUvZBh7zdzl1inbv2i15CJyrwf/euXNHb4lHfDUGBzwDBw2WvAEeuuBhm2VLl9Ai9dnwJaI9evakYsWKSe6DxfsPH6hrt260ePESmYxroQqeWMSIEah2rVpUtFhxqqc+vwQJEshBf/XqNfLZc14EBzj8Pnm9EydOUKHCRej8+QsUJ04cGjZiBIUKFVKCsjVr19B/I0eq5xsSIAULHpy2btsmPR1LFi1Uwcdu2QaeEIyvcKlUqSLdvn2bjhw5Ip+bs/Nx+eErXfiztAQ0AADgUSB1sPRzp108O+DUqdNozWpHXeN7+EDFlwjywTZypEje6kbnYQp+DifmWa/PZ/B8oGK8Dr/mj3CvAz/X0qX+t5nZVovUdvY0fOgQypEjp+Q+hA4dWi9xw18l7sGIED68h4RUnrGzS7fudOrkCQleOInSM35e1ChR6IMKMjgf4kfbY+lN4N4H7263NU6eDK8+c+/On+Eb/ub3GwDAN9hsz4MFH4Q4COAJorw7/s4HLD4Ael7fcjBmvzqo8bwK/ypwYGa21cISZ/JkU54DB8afB3+WP7qShX+nV4ED4x4afj4f1H+2Pfz34h9mNnBgvH3/MnAAAAgIbD54AO/h5NKnT13Vv04eEg9/hdfdvGUrubo+kcmZAADA/0PwAN7C80I8vH+fJk+aKPNOeBevO2H8OHluiRIldC0AAPhnCB4AAADAFAQPAAAAYAqCBwAAADAFwQMAAACYguABAAAATEHwAAAAAKYgeAAAAABTEDwAAACAKQgeAAAAwBQEDwAAAGAKggcAAAAwBcEDAAAAmILgAQAAAEwJZCj6sZ+x0cmJpkyZSiuWL9M1AAHH5s2bacbMWbRmtaOuAQDwX/xk8HD4yBEqVLgIffnyRdeAb+KvwNevXylIkCC6Bnxb9WrVaPq0qboEAOC/+MngAf4u7umZOnUazoQBAMBbkPMAAAAApiB4AAAAAFMQPAAAAIApCB4AAADAFAQPAAAAYAqCBwAAADAFwQMAAACYguABAAAATEHwAAAAAKYgeAAAAABTEDwAAACAKQgeAAAAwBQEDwAAAGAKggcAAAAwBcEDAAAAmILgAQAAAExB8AAAAACmIHgAAAAAUxA82KCPHz/S+/fv3X+4/PXrVw91/GMYhn4GAADAN4HUAQJHCBszecoUatO2nS55zc7Ojo4ePkRBggTRNQAAAG4QPNigT58+Udr0Gejq1au65ntr16ymokWK6BIAAMA3GLawQcGCBaOB/fvr0vfy5c1LRQoX1iUAAACP0PNgo/jPnut//6OjR4/pmm8OHThAGTNm0CUAAACP0PNgowIFCkRDBg/WpW8qV66EwAEAAH4KPQ82rmy58rTRyUke83DGmVMulChRIikDAAB4BT0PNm7QwAEUOLDb16BpkyYIHAAA4JfQ8wDUqHETcly9mi6cP0dRo0TRtQAAAF5D8AB09+5dWrnKkVq3aqlrAAAAfsxPBg9XrlyhTp270JcvX3QNQMBSuHAhatmihS6Bdzx79pwaNm5Mnz5+1DUAAUuGDOmpX9++uuS3+cnggRP4Bg4aRL169tQ1AAHHsWPO6ucYrVntqGvAO86dO0elypSlCePH6RqAgOP27ds0cdJkcjlxXNf4bX42eJg6dRoaVwiQ8P3+PRw8VKtR0980rgBm+LfvN662AAAAAFMQPAAAAIApCB4AAADAFAQPAAAAYAqCBwAAADAFwQMAAACYguABAAAATEHwAAAAAKYgeAAAAABTEDwAAACAKQgeAAAAwBQEDwAAAGAKggcAAAAwBcEDAAAAmILgwY958eIFPX7yRJd+39WrV/Uj3/P69Wtydj5Or169ooePHpHr06d6CQD4lhs3btC7d+906efu3btHL1++1KXv3bx5k96+fatLP/b161e6fv26Lv17hmH8dht3/vx5/Qj+BIIHX3DsmDM1aNiI2rRtRwMGDqJu3bvT+AkTaOq0aXoNr23YuJGSJEtO27dt1zXm3b59m8qWK0/16jfQNb5j0+bNNHPWbFq7bi2lTmNHTZo2pV69euulAOacPn1aAme/4PLly9SqdRtq1ryF2n8HUq/evWn0mLE0ZOgwvca/VbJ0GZozd64u/VyduvVo5KhRuvS9suUr0IyZs3TJa1euXKECBQtRpy5ddM2/devWLSqlPoPGTZrqGu87fvwEZcychZ64uuoa+G0qgvNz1EHUKF2mrC75L1u3bTMSJk5iqIhe1xjG58+fjY6dOhk9e/XSNT+WPmMmY/HiJbr0e1SQYuT+Xx5d+rk1a9bqR9735csXI178BIY6+5Ey/75r168br169kjLbvWeP8ezZc10Ca/75++1bBg0eYkSPGdMYNnyE8fr1a13r0dmzZ4206TPoku84c+aMET9hIuPIkaO6xs3YceONGrVq6ZLPOHXqlKHO5nXJ+x4+emR8/PhRl37O1fWp8fbtW136fr989Pixt16r/4CBRoVKlXTp35swcaKRv0BBXfo5z23c3bt39SO/5W98v30Seh58EJ85Va5SlXr26E7x48fXtURBggShEcOHU/To0XXNjwULFlQ/+n3BggXTj36Oo/DpM2bokvddu3aNHjx8SCFDhpRy40aNKFHChBQ2bFgpf/jwgVSwRJ+/fJYygHeogxqpAJtSpEwlPXXv37/XS/4O1R5SxcpVqEb1apQlS2Zd66Z1q5aUNUtWXfpzPAzQoWMnbw8/WIseLZq39/HIkSNRqFCh5LFlv/z0+ZOUWbSoUb31Wt79fX+Ld7fn4KFDNHf+fF1yEzt2bP0I/gSCBx+0ZOlSyQMoXry4rvGobp068i8Pa7Rr34FGjhpNxUuUlHHHH1m/fr10mbZs1Zq6dusmrz9l6lQqU7ac5Bg8ffpMulbrN2ion/E9ddYkXa5NmzWnTp07Sx13RbZs3YouXrpE6qxPhjs4IOD1OnfpQsWKlyAVCcu61k6cOKka9onymH/v6tVrZL0WLVvJ63z69Ek9vyudPOlCY8aMoc1bttDateukm3HL1q2yXopUqWn+ggXyGoyDGP69PNRTS31G/J4Yd2WP+G8kjRk7ToZiGL//wUOG0oyZM6lOvXp06PBhqYeAQ50Ny4E1VRo7+Tvzd+pv2L5jh4yjlyhRQtd4VK9uHclH4u95lWrVaMHChZTGPq37kMuw4SMk+ClcpKj795LX5yGQyVOmUImSpWjrtm1S37dfP9q9Zw9Nmz6DHB1XS9227dvlNapWr06t27T1Mnji5/DyFStWSuDBr5s9Z066pPbj0mXKSpc870+M2xluF3gd6/1y7Nixsl/u3bePqtesSUuWLJX1OXepbbv2NGnyZNnf+Hf8CrdBvI82bNRYhjLVmbMMcZw7d06vQeS0aRP1699f3nPzFi3l78vbs3jxEvms+PPjf9NlyCi/k4O4RYsXyzZcuHBBcjK4DeA278uXL/pVPZo1e7a0RzxUzMNNvB7nNrRu00Zeg/9mN1Q7y0PHOXLlcv9Offz4UZbx6zdq3ET9PaZLPedw9R8wgGrWri3fC/6MeRu5HjTpf/Bj/Gu3bu26dY0o0aLr0o9x15Ta0eQxd4X26NlTHrMsDg7uwxY8BKIO+PKYu3JDhQlrqIO1dDsGCxHSvftt1+7d0tVqoXYk92ELFxcXI0asWPL4zZs3RtjwEaRrlqkdxShUuIg8ZhUrV5ZuTqZ2diO1nb089kztlPL7LbhbtFyFikb7Dh2lrA7+slw1nFLm1wwXIaKhgh/j+fPn8v6iRo9hqLMvWUc1hjK0w1TQYqgGTx7nzJVbhkhYr9695V8V2Bh79u6Vx6qxlffu3/D3u6h6n9z9jB+3n+49e8l3xquf5ClTGepAbaiDjK9266qDhfw+7sr/EXVANyZOmmTEjhPX2Ld/v+xD9+7dk33/zp07so46WMtydaZvqCDA6Na9u9RPnzFDvtMWvD+rg6w85n1KBdbymL/zKiiR7fGMhwaTpUhpzJk711AHQNkHeJuXLl0m+5A6OBtly1eQdbnN4HZABeZStrQblvfHr8W/h7eLqYOo+763du1aI2nyFPKY8Wt4NWzB+74K5o3ESZMZCxctMtSB2lAHZ0MFArL86NFjRq7c/3MfGundp498BrztBw4elO3hoSp1MmOowMUIHTaccePGDVmX29L9Bw7IYx7e4XUtr8NDpZZhCx4iDhEqtDzm5TFjxTZUYCRlHm6yHEv4d3J7wa/DfxumTuJkHcbvRQWshgqe5O/M28WfAX/G/Dfhtpnfq2/BsIUNU58nBQ0aRJd+bPy4sfS/3LnlLP7hg4fqbPqNXuLR5ClTqWCBAvI4TJgwdOrkCSpevBgFCeLxzxYoUCD96HspU6akReoMiSPsrVu3qe0LSq/ffP/7OEq/evUarXJcJWd7LHny5NKV/CvcLRo1ShRd+h53nYZV2889MhEiRKAcObLLmRpH/6qRkn9nz5kjvzdFihTuXZIfP30k7kbms6o26gyC8e/iMws+m8mXNy+lVWd+/s39+/dp3959lEGdaeHH7WfSxEn60/keZ/lzAjD3uPkm3n9ZkMA/3odDhAhBMWPEpBgxY1LOHDmoUcOGFETtU4cOHZbvJH+Hnz9/QVkdHORKh+bNmlKTxo1JBfrqDPuMl/seW7xkiewH/Hw+i+bX5rJnPDQYJUpkecz7chzdBV+5ciUZHuV964k6s2fcZkSJGlUee4VfK3KkSLpEVLNGderUsYP0ljgfP05vXr/WS36M98dYsWJS7FixqHq1arL/Dhk8WHoeOPF09NgxlC9fXvd9uo46kz9y9CgdP3GC4seLJ3XNmjahJEmS0LChQ+Tz5cRxZt3O/ayNixs3Lq1bu4ZU8CS9m4EDB5YeSs/48+LttOA2iIdtixUtImV+L1WrVKaJkybLdsSIEZ1iRI9OBfLnl9fM5pCNnvjAlXABBYIHH5QhfQY52HL3/89EihiRunbrTs+ePyN7e3v3RsszbjR5h7BImjSp6bHH4MGDy7DIILVDZ8yYgUKqncKr38ddeuHDhaOGDRrIT+9evchx5QqKFCmiXsPn8I7IeNyXM6eTqobD8ntHjxpJUya7HUgWLVhAr16+lK7Qvn37yXZ37dKF8ufLRxUqVqI8efN5GL/1L2KpBix//nx0985t/OifTp066k/ne8WKFqXDBw+qA3EzXeM7MqRPL/9evHRR/v0Z64PZndt35Dtt+Q537dJZ9p2ECRNS1GjRZBhgx86dlCtnzh/u6zdv3qL06dO5v8bUKZOpf79+eqn3BQ4UmL4aX3XJnMiRI8tQjKOjI/3vf//74bb+SuZMmeTfly9fSX6UtcSJE1Po0KHV3/yurvmG26q0qj3k55nBn/2zp8/kqpiUKngJr05QvLPtHNxxHog1ezt7CfS8wr+H2yxwg+DBB1WsUF4iVh7L88rhI0dk/I7HzjgBiw+CPxNPRdTrN27QJbczoz1797o3XN7ZQTjfgM9m+vXtS/F0pO8VPoPh7eNryC34DMG3k9Y4eWn1mrUefg+/R8bvb+uWzbRyxXLJJ1m+fIUEG+PU2Qz3wnDg0Lmz37h8DHxe3jx5aPeunbRmtSNlyOB2YPdNBQsWlDPNhQsX6RqPeP/wSqzYseQgyTkGFtxbxicR9es3kB68WjVrStvwI3HixKZly5Z72Kct+8Hf0r5DR3X2HVoSoPkA/7s+fPgo7zVZsqTSS3PhosdgjHtUUqVKqUseffj4QR3A08hjDoS808ZxHsiAQYNo0MCB0oPhXdHU35oDgotW28fBxI+2DTxC8OCD+OA8ZvQo6t2njyQSWvAOsGqVozrrD0lvVPDASUacqHjnzh06efKk9EBwIhP7+PGT+1UKtWvVkgaFE4E4ual7jx7S1cc7drhw4Wj//gPSPcdd/zwRDHc3Mt45La9x89ZNevjQbQInTvx5r3aOG9dvSJDAkf5dFX1zAhNfOWFvb0dFihWXs4+lS5fRvHnz3a+osMaNA7M+4HOCkqWXJHhwt94RTsrkSaQYb48larf8y88pW7Ysubq6SuLounXrJHHJ8llwYiTvzCWKF6fSpUrJ5zhv/nzpkeFemE6qsTPUfxCwOGTNSps3OdGWzZsoe7Zsutb3cbf17NmzZAht4qRJHpLzeN+xXBnB31/rM9ZYMWNS4UKFqELFijRz1izZ9/m7GzNGDLp1+7YEEm/evJHeB95fjx49Js/j/Y+DDi5Xq1pVgnUepuPhD04ufPzIbfjBM97PLPua5V/3fcv46mG7v1ita9kvOSnUsl9++fptv+XAnIcaeL/eunWrtBUcMPFrc5vy5bPXyYqM2xHL62zevFmGMMKHD08dO3YgJ6dN8hkwfm88FMvDqRaWhHFO2ua2pZD6LFl09flxG8dDrst18iZ/XtwOSBunfx8/75lq3x4+ekT79u+nF8+fS+8Bvxd+z7dVO8uBHL9vy2fDz+Wh1gb160ubY6lfu34dtWvTVh7zOta9OPw5WH+2ti5IX0U/9jMuy0HHWXYo/yZDhgzSzTptxnSaM2euXCp07vx5KleuHCVKlJDCqAN/xIgRpSszcOAgVEid7fB4afny5ej0mTPyBeehieQpUlDWrFkoZswYNGfuPNqrzkJ69eyhovlk0vPAZyr9VVDBmcTly5enBw8eUNy4cSSocHJyoqDqNfjSUD7wHj12jBaps6kiRQrLjvjy5Qsqr7YnSeLEavsO0hW1k1VQr8EHaN7WRYsWy3rDhw37LnjgHXTlqlUUNlxYaUx5B+QxfD7r4jHXFOosK4ba6YMHD0HLli+nShUr0M6du+iF+p3BggaT4Gf9hg3ScHIjwAeHfHnz0R519rBi5SpKrs5WOnboIO9xy5attGvXbtXwXFbbEUK6rblB4J6dO3fv0KnTp6lfv74ytuuf+Ofvt2/h4JiDaO6uHzxooNpXEukl3zxWQS5/93iM3Ldwt3q1qlUkABg3frzsmzw+z+Pe6dKmle//JnUA5INKCPUdT5kyhTyvWNFiKlC/JYH3E9cn9N+IERQubFhKkya15DCcPXuOGjaorw6G+yl7juzy/niYgPe10qVLqbPdVHJ56CZ1oF23fr30unB+gGd8MOcTjxBq/+Gz7PXrN6iTiVBkfDUoUqRIchXFV7VfxYkTh566PqVTp06p9iQopVIH6yhqXw2hTmCWqBMD3i8vXrxE51X7wfsi/37Os+BeF26zGjVsIAFGmtRppE3Ztm277N9x48Sl2LG/5Q2wky4udODgQXry5DG5uJxSB+47NHBAf2nHeH9Pl9Zerqa6oto2PqiPGD5Meib46o6x48bJ/nv23HnatXsXDR0ymKLqPI0kSRLT8BH/yXeDPwsOQPgELVJk9T5VgBJUvS9ua7gN5XaL29ucOXOqIDAk3bt3nypXqkTJk6eQHpw7d26r9q8IrVEnWsFUQMF5LXZ2dvJ35ROsmepvxHka2RwcqGqVKvJ33rhxo/RM8DAjbyt/LlzmdtOyjT7pb3y/fVIg1YD7uVO3jergN3XqNOmuBAho8P3+3n0V/PKQATfOP8KNe7UaNcnlhNtZM/gNPNvlzJmzaO+e3brGeziQSJQkKbk+fiQBiq3zb99vDFsAwD/HXf8/CxzA7+LufOvufe9yH2rR/4L/gr0VAAB+C+cr8NBp5EiRJafDu3gYgIcv8/zvfzK8+TszbcK/heABwA/ieTdq160ruScAflWCBAkkN4rnWfjV1WPWeJiiWdOmcjUVz5XByargvyB4APBDOMGNpx9OnzGT+7TBAAB+DYIHAD+A70dQoVJlypzVQS7r9YN5zAAA7hA8APxDfOkd3/AnW44cMs8FAIB/gEs1Af4y/n7zde98vw+efOhnenTvLtfX+1V8jX7bNq1/eu8Bn4JLNSEgw6WaAPBLhqeZAH/ky5fPfvqHb7XMs5cCgG1BzwPAX2b9/d5/4AANHjyEtm7bppd69PrlC5kB0K+KHScuubicpGi+MOOeZ+h5gIAMPQ8A4G08JfCG9eto3949VLxYMV0LAOC3IXgA8AOyZslCqx1X0aEDB+ReBwAAfhmCBwA/JGPGDLRi2TJyPnqEKlQor2sBAPwWBA8AfpC9vT0tXrjQT+c7AIDtQvAAAAAApiB4AAAAAFMQPAAAAIApfnaehy5du1HdOnV0Dfim9+/f06PHjyl+vHi6BnzTxYsX6eHDhwFiHpO/Pc9DkaLFqG3btroGfNPXr1/p2vXrlDRJEl0DvunRo4e0afMWfzPPg58MHh6ohnX8+PHknRn44M9xA3HK5RSVLVtG14Bv4/kdSpXy/5dk/s3g4e3btzR02DDcpvwveerqSus3OlHtWjV1Dfi21KlTq8+7li75bX4yeIC/CzN6wu/6m8ED/F2Y0RN+BjkPAAAAYAqCBwAAADAFwQMAAACYguABAAAATEHwAAAAAKYgeAAAAABTEDwAAACAKQgeAAAAwBQEDwAAAGAKggcAAAAwBcEDAAAAmILgAQAAAExB8AAAAACmIHgAAAAAUxA8AAAAgCkIHgAAAMAUBA8AAABgCoIHAAAAMCWQoejHYCO2bttGJ06c1CWiixcv0uEjR6h2rVq6hiho0KDUulVL+RfgR2LHiUsuLicpWtSougb8qyNHj9KuXbt1iejRo0e0eMlSatO6la5x06RxI4oQIYIuga1C8GCDjh1zphy5cumS1+rWqUPTpk7RJQCvIXgIOO7evUspU6ehDx8+6Jrv5cublzZvctIlsGUYtrBBmTNnolKlSunS94IFC0Y9e3TXJQCwBXHixKHGjRrpktf69eurH4GtQ/Bgo/r16U2BAgXSJY8aNmhA8ePH1yUAsBWdO3ei0KFD65JHxYsVo2wODroEtg7Bg42ys7OjypUr6dI3oUKFoq5du+gSANiSGNGjU6uWLXTJo3590esA3yB4sGG9e/akIEGC6JKb5s2aUqyYMXUJAGxN+3btv0uIrFChPKVLl1aXABA82LRkyZJRrZo1dYkoXLhw1LFjR10CAFsUKVJEatumjS6pg0TgwNSnVy9dAnCD4MHGcWIkJ0iytm1aU5TIkeUxANguvkw7apQo8rh6tWqUMmVKeQxggeDBxnFiJCdIRo4cidq0bq1rAcCWcS9kp06dZJ6XXj176FqAbzDPg0lPXF3p2dOnuhQwPH7yhLZu3SpnGAEJ53MkSpToh1eVwJ/DPA9unj9/QY8fP9KlgOH9+/c0Z+48atqksa4JGLg94HbBc74XmIPgwSS7tOno48ePmHnRH7h37x45rlopE9uA70Dw4KZkqdJ09tw5uVoJ/LbHjx/TiOHDZCI8+H0IHkxKliIlbd28iRImTKhrwK8qVboMtWjRnIoWKaJrwKcheHBTqHAR6tGjO+XNk0fXgF/VslVrsre3oyaNA1aPyt+GnAcAAAAwBcEDAAAAmILgAQAAAExB8AAAAACmIHgAAAAAUxA8AAAAgCkIHgAAAMAUBA8AAABgCoIHAAAAMAXBAwAAAJiC4AEAAABMQfAAAAAApiB4AAAAAFMQPAAAAIApCB4AAADAFAQPftyHDx9oxYqVNGnyZFqzZq2Ur169qpcCgC368uULbdiwQdqFpUuX0cuXL9EuwF+F4EE7e/YsNW/Rkq5fv65r/j0OGoqXKEmhQoeiypUrU5IkialS5SpUs3ZtvQYA2Jrde/ZQvvwFVMDwiipVqkSZM2eiZi1aUIFChfUa8CcMw6C1a9dRl65ddQ14BcGD9unTZ5oxcyaltrOnuvXq0/nz5/WSf2PDxo3Upm1bmj1rJpUoXpyiRolCdnZ2tGzpEoofP75eCwBsyfHjJ6hylSo0etQoqlatKkWLGlWdVCSh+XPnUs6cOejdu3d6TTCLg4b169eTQ/bsVFGdrJ06dVovAa8gePCEuwMXLV5M6TNmoirVqtHJky56yd/Vo2cvKlGixHeBQsiQIalJ48a6RHTw0CH50m/dto1evXoldTy0sWXrVvn59OmT1FmcOHGSnDZtokuXLrk3NK9fv5Zg5dgxZ7p586bUMX7dffv3yw7F3aKMX4+7R/nn1q1bUvfmzRsp37t3T8rs3Llz5Oi4mu4/eKBriO7fvy89O/y7z5w5o2sBwLv6DxhA6dOlp0yZMuoaN4EDB6YunTrRW71P8/734sULOnT4sIf9ktuLdevW0bNnz3WNm7t378p+zvsmP7Y4cPCgtCP8etZ43+fXsd6PHzx86N42cJvCeD0uv3//XsrcVvDv2btvn7QvjLeFT9b49x45elTq/ibeDm7/sufMSeUrVvpnbb5/g+DhB/gLxQe/rNmyUZmy5WSn+1v4y8s7a768eXWNR/nz5ZODeYeOnShP3nw0cdIkGXKZOm06XblyhUqWKk2xY8WiVy9fUboMGaVBYAsWLqQbN25QmtSpqUHDRvTkyRN6+/Yt9ezVm9KlTSs7eb/+A2RdDkR4yISDhUiRI1OOXLlp85YtsmzT5s2UKo0dXdNDPIECBaJeffqQq6urlLt260aXL1+h4MGDUZYsWaXx4eAmbfoMNHTYcOrWo6fspADgfY/V/sr7YN4ftAtp1T4cRe2r4ydMkJOfsePGUbv27alr9+5y8C5dpqwEFDFjxqK8+fPT6tVr5HmXL1+m6TNmUJasWWnW7Nm0VgUFbOSo0fT582dKoE5gKletRl+/fpV6zrMYO248pUyZkkaNHkP1GzSU9vKtCgzKVahIXdT+z8EMu3DxotqeidJGODsfl7YmXrz4NG78eCpXvoIEC3ym33/gQDlhKlio8HcnPL6Ft5nbspy5c8u2cK8OeF8g9QG6hX+/MOK/keqA4nb2GRA9fPiIZs+Zo0tey/O//8nOsHf3LkqYMKGu9XkcBfOXee2a1VS0SBFd+72Lalvs1VnIxfPnKG7cuBQ0aFB5Xu1atah8+XKyTus2bWW9zZucJBho0byZ9GjwjhIrdix6+OAhNWvRnHaog3uoUKEkCYuX9+3XTxqL/upfxo1KL7Xj37h+jYIFCyaBQIf27ahO7drS0zFs+HDq3auXBFnz5s2njh3ay/M6delKz589ox3bt0nDkCVLZhoyeLA8J0SIELKObylVugy1UO/tZ58h/JnYceKSi8tJ6T63ZYUKF6EePbpT3jx5dI3P47ysDJky07ixY6hpkya61mvhIkSkBfPmUalSJWU/HjN2nJzZjx41UpYvX75C8iRu3bgu+/b58xdowvhx7gfU4sWKSQAySwUVGTNmoI1OTlSsaFG6ffs25c6Tl65eviTtDfdexkuQkCapgKVy5Uo0f8ECOUE4c8pFAobRY8ZSzZo15PvBn9H4cWOl/bhw4YIEGvv27qFp6qTnzds3tFid3PyNdqFlq9YUNFhQOnb02E97OhKpNr5Klcq6FHBZ2nizvN3zwAeTUKFCB9ifkCFC6nf6Y2HChKFAgQPpku+JECGC/Pv+nVtX34/wzss4kOEdkndkHpKIHSe21LPChQpKghX3MJQrV5YqVKpMNVRwESpUSIoVMyalSJFcPe+99CRMmDiRChUqJM9bsXIVxY797XWKFC4sZz7Ox49LuVnTJnIGwlatcqQK5cvL423btkujcfPWLflpqQ7egwYNlGW8vZagy7cbCICAJmLEiPLv+/cf5N+fCRIkiOxr3APA+93KVSs97M+8n3PvJQ9LFMifn5YtX07ZcuSQkwcOHFi5smVUoJCHmjVvQXZp0sh+zb0SkSJFcm97+IQjd65c0u6wShUr0rOnT2nb9u0StDx//kwCBx7GOHX6FN27f1/ahVChQ9Mmp42UKFEi2VY+ULO/1S6ECB5c2vOf4c/Oq2NFQPq5cvUPrtDhngfviBApsn4UMJ04cdIIFiLkdz/BQ4Yyqlavbpw86SLrJU2ewrh+/bo89i0fP340osWIYbRq3UbXeKR2SuPLly/GlStXZBu5zFRjIOXNW7ZIme0/cMAIESq0oSJ6KavGwsiXv4ARJlx44/CRI1L35s0bQ50tGFGjxzBKliotr50iVWpj2PARspyp4ENe++jRY1J+9eqVESVadOPgoUNGz169pI716t3bqF23ri65UQ2H/FukaDFjytSp8vhv4PeiGjVdAt8QK3Yc49Hjx7pkuwoWKmzs3LVLl3xPugwZjdJlyurS9z5//iz/cnttabNY5qxZZd+0xu2CZZvv3btnqCDBCBk6jDFw0GCpY5s2bzYyZckqbQO3N6PHjDUSJUmql7qp36Ch0bBRY10yjB49exrlKlQ0NmzcKO0Ne/r0mbSl/HuscdvQuElTo1v37rrG97Vo2cq9Hdqzd6/87SztvfVP0WLFZZ2AbPHiJfqRech5+AGOhmvWqEGnTp6Q7rR06dLqJb6PexE6duhIi5cskSEHz5YsWeqegGQtXLhwlEadIWzatFnXED1+9JgKFSxIwVWkvWzZcsqeLRtt37aVKlaoQIsWLabTp09LkmSXzp3o8MED0kvBiY283iZ9NsEePXokZy4ZMqSXctiwYeXz6dCxI6W1//bZODg4SK4IJ2ox3k7OxQCAP9e9a1c5q+eEQ894uFMFcrrkUfZs2d17B5jr06cUKWJEyqb2V74kPEaMGDRp4gSaN2cOzZk7V9bh+SO4x/HQgf2UOVMmWqX262zZHOjOnTseEiUfq99ZskQJXSJJ6N6yZYtc7sjtCIsUKSIlT55c8ho4KZ3xcs7B+pe412Trls20ZfMmypUzp64F70Dw4AkfZBs1bEjnz56hWTNnUIoUKfSSv6tTxw7UsEF9Kl22nAwn8Hjn4SNHaO68eXIADx06NF3XO551dvCUyZNUcLFEuh85CODkqSGDB8myhYsWkYo05TEHKIUKFqDPn79QffV+eUiCZcyQQRqSweo53L3IiVFPXF2pZ+/eNG7MGAmqLJo3a0p3bt+hsmXL6BqS/ALeIfk69CJFi1GefPlk6ISHVDgb++zZc38tIQogoOG8gkEDB1K9+g1o8JChEvzzFVScDB09WnQZiuT9nnMHeJiAhw5Ynz696c2btzRo8BDZn7t27SaXe/LVWw8ePiB19i/7JXfVc8DAxowbK8nOjIcZOJ+Dg42WLVpI3gAf+DkACB4iOJUuXUrWY/HixaNixYrK/BPWhqo2ZemyZXI5fLHiJWjnrl0SUHAuBudceHVC9Lfwe+OTKh5KyZE9u66Fn/F2wmTEyFHo+VO3bPqAiC8V4sShdm3behgb9CxZipS0VUWpvpkwaY0PuHxJFOclJEyQQBKgeOyRcxiOHjum1yLZqS3jhRwIODo6yrhk2TJlKXLkSFLPZwtXrlyVxiJrlqySCCWXSV04L1d3cODEPRIcmDA+4K9ctUrGK7lB4fFJz44ePSZJkNa4wdqozoJuqzOU0qVKUZw4ccjF5RQ9f+F2eRhnb/+Nzw8Jk74PCZNu/kbCpDW+amL1mjXq35cUI3p0SZDmEwLGvRKWoIHnhuErMBgHFJyfxPsh5znwgZtxzyOfiHASY6yYsSQQ4DaGk6r56q1nz5/J+7I+keLEaGdnZ5ljgvcvXt8at6d8mbnnvAIOOLiHJGnSpOqkopBcCcZtHOP3wVdw+DYOfOzt7Txc8m6ND4nbd+ygvXv3Ur++fXVtwMS92FWrVtElcxA8mPS3gwf4fQgefB+CBzd/O3iA3/er4MGW/EnwgGELAAAAMAXBAwAAAJiC4AEAAABMQfAAAAAApiB4AAAAAFMQPAAAAIApCB4AAADAFAQPAAAAYAqCBwAAADAFwQMAAACYguABAAAATEHwAAAAAKYgeAAAAABTEDwAAACAKQgeAAAAwBQEDwAAAGBKIEPRj38qYuQo9Pypqy7ZrhSpUlOypEkpVOhQusb/e/v2LT158oTix4+vawKGQwcP0cyZM6hwoUK6Bnxa7DhxycXlJEWLGlXX2KYiRYvRp0+fKErUKLrG/+P3c/PmLUqaNImuCRhcXE5Rp44dqFHDhrrGdi1ZspSqVq2iS+YgeDDp6NFjdPfuXV0KGJyPH6etW7dS1y5ddE3AECRIYCqkAoeQIUPqGvBpCB7cnDt3ji5duqxLAcOdO7dp5OgxNHrkSF0TMAQKFIjy5MlDESNG0DW2C8ED/JGNTk40deo0WrPaUdcAeA+Ch4CLA6JqNWqSy4njugYCmj8JHpDzAAAAAKYgeAAAAABTEDwAAACAKQgeAAAAwBQEDwAAAGAKggcAAAAwBcEDAAAAmILgAQAAAExB8AAAAACmIHgAAAAAUxA8AAAAgCkIHgAAAMAUBA8AAABgCoIHAAAAMAXBAwAAAJiC4AEAAABMQfAAAAAApiB4AAAAAFMQPNig8RMmUPwECd1/6tWrTzt27PRQlz1nTvr8+bN+BgAEdI6Oqz20AQULFabLly97qEuZOg09f/5CPwNsGYIHG1Sjeg168/YtPXj4UH6ePX9OHz5+cC/zT62aNSlo0KD6GQAQ0JUsWYJChgrl3gY8cXWVEwjrdqFM6VIUMWIE/QywZQgebFDkyJGoZYvmuvS9WLFiUf169XQJAGxBsGDBqGuXzrr0vVAqsGjfvr0uga1D8GCjWrduTWHDhtUljzp17EAhQ4bUJQCwFTVr1KD48ePrkkeNGzWkGNGj6xLYOgQPNipK5MjUvFlTXfomZowY1KB+fV0CAFsSPHhwL3sf+GSiQ4cOugSA4MGmtW3blsKECaNLbjp27CjdkwBgm2rXqkXx4sXTJTeNGjaUEwsACwQPNixqlCjUrGkTXSLpkmzUsIEuAYAt4t6HLp076RJRiBAhqGMH5DqARwgebFy7du0odOjQ8pi7JdHrAAB1atemOHHiyOOGDRpIEjWANQQPNi5a1KjUtEljih4tmiREAQBwbwP3PnAvBCdQA3gWyFD045+KGDkKPX/qqku2iydYunz5ii4FDG/fvaPr165RmjRpdE3AECRIEOrcqSPOmnxR7DhxycXlpAShtmzR4sV06NBhXQoYvnz5QqdOnaYMGdLrmoAhUKBA1KRxI0qdOrWusV1LliylqlWr6JI5CB5MSpYipXTpRYkSWdeAXzVl6jQaNnQIFS1SRNeAT0Pw4KZQ4SKUNm1aSpo0ia4Bv2r58hVUpUplFUA01jW2C8HDX8TBw9bNmyhhwoS6BvyqUqXLUIsWzRE8+CIED244eOjRozvlzZNH14Bf1bJVa7K3t0PwoPxJ8ICcBwAAADAFwQMAAACYguABAAAATEHwAAAAAKYgeAAAAABTEDwAAACAKQgeAAAAwBQEDwAAAGAKggcAAAAwBcEDAAAAmILgAQAAAExB8AAAAACmIHgAAAAAUxA8AAAAgCkIHsDbPn/+TG/fvtUlAAC3duHdu3e6BLYCwYMft2//fmrVug3Vq9+APnz4oGs92rBxI9WsXZumTZ9ODx890rU+r1///lSp8u/d+x0AfM7x4yeoS9euVKtOHXrw8KGu9ejI0aPSLowcNZpu3rypa31e3379qGKlyroEtgLBgx+XK2dOihQpIi1avJjmL1iga78xDIN69OxFy5Ytp2pVq1KM6NH1kh+7cOECPXF11aUf4zOKg4cO6RJR69ataeyY0boEAP9KxowZKEWKFLLfT5gwQdd6NGjQYFleuFBBSpAgga79MdenT+n8+fO69GPc5uw/cECXiNq0aYN2wQYhePAHQocOQ8WKFqVRo8fQ169fda0bp02bKFHChPI4ZMiQ8u/P8I7ftVt3eueN4YdJk6dIoGERLWpUSpo0qS4BwL8URrcL3OP46tUrXevm7NmzFDhIEHnsnXaB9evXnx4/eaJLPzZz1iw6ceKELqFdsFUIHvyJNm1a040bN2jNmrW6xg33SNSoXl2XiG7fvk2DBg+RrkrGB/+u3brRihUrJfDo0LETbXRyogkTJ9KGDRukjtflcqPGTWjL1q3yvCVLllKfvn1lSISXvXz5kqZMnUoDBg6S5ezp02c0fMR/NOK/kdSxUyf3rlHezl69e9Pq1Wto3vz5VLhIUWlwAMBnNahfjwIFCkTTZ8zUNW448G/RvJkuET16/JhGjxlLPXr2lDLvqzwMOXXaNClzG8BByIIFC2nhokVSN3nKFBo7bjw1a96CVq1ylDrep7t170Fbt26Tkxmv2gX+XcOGj5C2oXOXLnT37l2p57aI24kdO3fSxEmTpF1YuXKVLAP/B8GDPxE/XjyqWLECjRj5n64hOnr0GKW1T0shQgTXNUTx1HqxY8ei5SuWSzllypT07t172r1nDwUOHJiGDHbbyVu2aEElSpSgOXPn0t69e6VcrlxZql+/gSyvWrUKZUifnkoULy7L3rx5Q4cPH6ETJ0/Kch7SKFm6FBUsUIA6dexAuXLmov/lyStnLl++fKGVqrFZuHgRJUmShNq0bkUtW7Wm+w8eyHMBwGeEDhOGmjRuTOPGj6ePHz9KHR+sgwULRtGjRZMy48fp0qWlWbNmS5mHMcKHj6BOIDZKuUP7djLkWbNmDTkZWbduHS1YuFD23Qb161OdevXk9cuWLUPZHByoUKGC1L5d2+/aBc7LKlGyJJUqWYI6d+pIadOmpTz58tPz5y+k13PRosU0f/4C9RrZqEaN6lS/YUMkW/pTCB78kY7t29OxY860a/duKfOZQuNGjeSxteDBvwUTLFiwoPrR93Jkz04tW7aQA/5jdcbw9NkzvcSjWLFiUfLkyXWJpAfk48dPMvbKuFEJEjQozZ07TwKGuHHiUP58+ShnjhwSpIQKFYru37sv6wKAz2mhgvunT5/S4iVLpMxn9S1bNJfH1kKECKEfuQka1G1Ywyvp1YlD186d5YD/4MF9CQrevv3+IM/tQrJkyXSJaOmyZTKckjp1ailXr1aN3rx+TUuWLqFUqVJR9BgxqKRqDzJlykiVK1WSwMHVG/lX4PcgePBHOIovVLAgjRw5iq5du0ZRo0ahiBEj6KW/h5OueJiBuxmjRokijYV3nD5z+rughAOJy5cv65JHQYIE+S5fAwD+nPQY1KghQw98hv/o0eM/zkHgHszXr9/QgIEDKVz48FLnnbbh9OnTKij51i5wbycHIpcufd8ucJvA0C74Twge/Jn27dvR5i1bqHWbtjKc4BUeA/WuwUOGymVf3bt1lR4D74oYMRLduX3Hw47PbUtCnbwJAH9Pu7Zt1AH6ElVVZ/qNG3/fG8nMtAvTZ8yglY6rqHevXpQmTRpd+2vcLty8dUuX3HDQkSgR2oWABsGDP8BDCpxjwArkz08ZMqSn6OpsI06cOFL3+fMX/a/bOhEjRqS7d+5KMhPnIJw86UIvX72UZZazgidPXOnKlSt0/MQJ97HSY87OEgzwmCl3J/K6vB73cnADwD9f1bawatWq0vsPH9wTqTjb++LFi1S3Tm0pW9a35rkMAL/vy9dv7QIPHZQqVVL25axZskjdd+1ChAj0QrUJvH9zrsKBgweljbDgYcenrk+lXXB2Pk6fP7k9z1m1C+zRo4f07NlzaRd4mIR7LLltkn1dn0TUqV1LtRlPJCmb8fq379yh6jqp27pd8Pwv+C8IHvy4w0eO0NlzZ2n5ipXuVzP06NZdEpwYX5K1c9cuGdKYNXu2TBKVL29eGV9MlyEjTZs2XYYTuAuSgwjuKmzRvDm1bN1KHfBfS1LTtu3bqUKlyhQ3blzprlywcJHkKDRq2JBmz5kjCVF8FQcHEZ8+fZKuSe4qdVy1ksZPmCBXc/Tq3YfGjxsrY6Ccl/H+/Xu6cOEi3VJnIXylR8KECeT3eL6kDADM431w3779tHXrVvfLqTt37ERdu3aRx7yvrl23VtqFFStXSdvBeQgVKpSnrA7ZqHefvpQ5U2ZpDziZmnG70H/gQOk54ETJ8+p1S5QsJbkSnO/EbQEPk/IVHouXLJV2hwOR69evu7cL3IasXLGchg4dJld28ARS06dNpSiRI8v6oUKFVCcsx+mOCij4SjHevnXr1/9wAjzwuwKpqM9bYV/EyFHo+VMktiRLkZK2bt7kr7rn+U9spssyoChVugy1aNGcihYpomvAp8WOE5dcXE7Ktf62rFDhItSjR3fKmyePrvH7bLVd4Cu/7O3t5CoVW8eX5POVdb8DPQ82wBYbCAD4ObQL8CcQPAAAAIApCB4AAADAFAQPAAAAYAqCBwAAADAFwQMAAACYguABAAAATEHwAAAAAKYgeAAAAABTEDwAAACAKQgeAAAAwBQEDwAAAGAKggcAAAAwBcEDAAAAmILgAQAAAExB8AAAAACmBDIU/finIkaOQs+fuuqS7UqWIiXNnTOb4sWNq2sChk+fPlGwYMF0KWCo36AhdejQnooWKaJrwKfFjhOXXFxOUrSoUXWNbSpUuAg1btSIsmVz0DUBQ0BsF3r17kPZs2ejJo0b6xrbtWTJUqpatYoumYPgwaRyFSqqxtJFlwKGDx8+0Os3rymK+hsHJEGCBKEVy5ZRunRpdQ34NAQPblq3aUvrN2zQpYDhy5fP5Or6lKJHj65rAoZAgQLRhPHjqFjRorrGdiF4gD+y0cmJpk6dRmtWO+oaAO9B8BBwnTt3jqrVqEkuJ47rGgho/iR4QM4DAAAAmILgAQAAAExB8AAAAACmIHgAAAAAUxA8AAAAgCkIHgAAAMAUBA8AAABgCoIHAAAAMAXBAwAAAJiC4AEAAABMQfAAAAAApiB4AAAAAFMQPAAAAIApCB4AAADAFAQPAAAAYAqCBwAAADAFwQMAAACYguABAAAATEHwYIMePX5MN2/edP959OgRvXv3zkMd/3z58kU/AwACuqdPn3nY/+/du0efPn3yUMc/Hz580M8AWxbIUPTjn4oYOQo9f+qqS+CfzV+wgBo0bKRLXnPImpX27N5FgQIF0jUA34sdJy65uJykaFGj6hrwr/bs3UsFCxXWJa/FixePzp4+RSFDhtQ14J8tWbKUqlatokvmoOfBBlWvVo3SpEmjS14bPHgQAgcAG/K/3LmpWNGiuuS1fn37IHAAgeDBBgUJEoQGDRygS98rXqwY5c6VS5cAwFYMHND/hycNdnZ2VK1qVV0CW4fgwUbxGUaunDl16RtuOLgBAQDbY29vTzWqV9clj/iEg088ABiCBxvFQQIPTXhWs0YNOcMAANvUt09vCh48uC654Z7IokWK6BIAggebls3BgcqUKa1LRCFChJCGAwBsV/z48alZ0ya65AY5UOAZggcbN6BfPwoc2O1r0LxZU8mmBgDb1qVLFwofPrw8Llu2jFx9BWANwYONS5kyJdWtU4ciRIhAnTt31rUAYMuiRolCHTt0kByHgf2RAwXfQ/AA1LtXT/mJEjmyrgEAW9eqZQvq3q0rJU+eXNcAfOMvJon6b+QoWrZ8mS4B+D9p7dPSjOnTdCng+JeTRJ086UJNmzejr1+/6hoA/yVa1Gi0Yf06Xfr7/mSSKH8RPFStXp0yZ8pMBfLn1zUA/sfdu3eoQ6fOdPH8OV0TcPzL4MHRcTVNmTqVhg4ZomsA/A8+9GbPmZM+vHura/4+mwgeKlWoSBUqlNc1AP7HtWvXqFiJkggefBgHD4uXLqFlS5boGgD/g3vMQoUJ62+DB+Q8AAAAgCkIHgAAAMAUBA8AAABgCoIHAAAAMAXBAwAAAJiC4AEAAABMQfAAAAAApiB4AAAAAFMQPAAAAIApCB4AAADAFAQPAAAAYAqCBwAAADAFwQMAAACYguABAAAATEHw4IWXL1/S5i1baOu2bfT4yROpe/jokfwLvuf48RO0YsVKXfK+J66uNHLUaLnFLYBvef/+PW3fsUPahrt370od2gXfx/v3uPET6PPnz7rG++bOm0fnzgW8W+H7BQgerPDBp0fPntSsRQsKFCgQhQ8fnqZPn0FFihajtWvX6rV8xsePH/UjYBcvXqTOXbrQilXeCx6sP7/79+7R6tWr6dOnT7oGwGeNGTuOqtWoSW9ev6FIkSLR6jVrqFTpMjRp0iS9hs/g77BhGLoE7969o8mTJ1PHTp28tX97/vw40Ltw4aIugU9C8GClRctWdObMWVqgotXChQqRQ9as1L1bV2rUsCE9e/Zcr+Uz/hs5Sj8CliJFCsqT53+69HMc5I0aPUaXiOzt7Wnvnt0UIkQIXQPgc4YOG06LFi+iRQvmU+nSpShrlizUonlz6qbahpcvX+m1fMbUadOk5xPchAoVimrVrKlLvzZ5ylR68+aNLpH6my2g8uXL6RL4JAQP2pGjR2nmrFnUo0d36XWwVrFiBUqWNKk8/vLlCz14+JBev35Nd+7ckTr29OkzOnHiJH348EHXuOF1Tp06JetbLFmylFauWiWvZY27127evKlL3+P17z94II/Pnz9Pr155bLj4oMq/6546E7fg5/APR+P8Y122Xu4Vy5ANb5P1a1rwtpw+ffq7MwLL827fvu3hM+Lts/5dnn93oEDffx35d/N7evv2ra4h6tW7N52/cN7Dcy3dyBa8TWfOnPFyuy3r3rp1S/6WAD9y//596te/P3Vs30EOZNZyZM9Oef73LeDl7xr3iF29elXXkHxveTju+fMXusYNd8Xz99qyrzDep/v266/2E7d91YL3If4uW9d5ZvlO8/Za73MWvC9av4ZlX+R/mWVftJQ976vWLNvMv5P3Ic94Ob83Huaxxr0I3A5yu3X27NnvtsVz2SJw4O/bhUePH8vv4HbXgl+T/1b8fMtr8Ta4Pn0qjy14n+fneu795dfivxcHH/xa8HMIHrS5c+dRhAgRKHOmTLrGo3LlytLRo8coY+Ys1LNnL6pVpy6lsU8rX0Du0ly2fBntP7CfUqWxI2fn4/Kc9h060oKFi1Rjco1SpkotwQHv2E6bN9HjR4+k9+Hy5cuyE7Zs1Vo9vkJNmjajBg0byfOt8WtmzupAvXv3kS48Xj9dhozujdKFCxeoQ8dOdO3adapUpQp1695dtq1tu/YUKkxYaTiuXbtGefLmo2w5cshj1r1HD1nXGjds/PoO2bLLWGO5ChUpSbLkcgbGeMds3aYtrVy5UrY5l2pAd+3eLb0zvA32adPS9Bkz5HnJUqSkPn37yvMcHVdT+IiRaOeuXRJkjR03XrbNOrCy1rhJU1qzdp363M5TipSp6MaNGxKgHTvmLA0tf343btyidqphT21nr5/lFgjWqlNHgpt+/QdQw0aNZbyUG7oKlSpT5apVacR/I6mD+hxTq78X/10BvML7Lx/IChQsoGs8Klu2DF26dEmGNnnfbdO2nbQLV65coTVr1koP2bnz5yhrtmy0bNlyec68+fOpe/ce9Oz5c8qV+3+S58P76iq1f3Cvw4SJE2Qf4e8styH79x+gOXPnUhaHbLJvWuODaKPGTSh3nrzSa8Hf6bTpM9CGjRtlOb8G7x8HDx6iWbPnyHbwwZRPlHjfmz1njrwmv0aMWLHp6DG3fYH31QoVK3kIenjbuL1IqtoCfg/lKlSglKnTyHCjBe/rM2bMlH0tf8GCtFbtv2z58hWUMHFitY3TqbxqF/Lky0/Zc+aUQILbNn6dIUOHybqbNm+mKNGiS86ZVyZNnkwDBw6S7c6cNSs5bdok7Ql/fvx63K5we7TRyYmSJE0mQ5oW3D7xyRu3k7nz5HH/HZOnTKEEiRLJ58JtZtnyFaQnGn5CHQi8JUKkyPrR31elWjVD7WC65DuKFS9hqC+wLv1Y/QYNjVKly8hjdQA2VARrqAbDUDup/FSrUcMoXqKkLI8WI4ahAgN5zK8/YeJEebxy5SpDBSHymFWtXt1Q0bA8Xx0UjWAhQhoHDh7US7/h3122XHlZT51ZGwkTJzFUAyXLSpYqbaiIWZbt2LlTXoO3T0X7sh2HjxyR9davX28kSpLUUA2ilFWkbqgdTx5bUzuwETV6DMPFxUXKw4aPMEKGDmOoxspYsHChUaNWLalnCxctMmLGim2oqN3Yu2+foQIEQx3gZRm/Z94W1ZhIOX6ChLJ97N79+7JM7fBSHjBwkPytGW935KjRDBWQSFk1soZqsORx3379jDp168ljtv/AASNs+AjymN9/8pSpDHX2517mv+voMWOlrBpYQwU07q9boVIlQzWI8ti38LbwNgVEsWLHke/Ev7BqlaOhAmVd8h1NmzU31EFWl35MBdaGChoMdaZrqCBXvtOly5SV7x//qAOjfPd5vytcpKixbt06eZ462Lp/lx8+eiT7w/Pnbt/NadOnG4sXL3F/Dd5v+w8YKMusrd+wwUNbw+2R5TWnTJ1qqKDF/TUSJEpsDBw0WJbly1/AvU3ifZHfp2U/5X3t4sWL8tiaOtBLO3Do8GEpq+BDtpnX3bxli1G0WHGpZ1zm44bl+xE/YSJpbxi3Tbx/jxw1WsoqoDcGDR4ijxnvo1u2bpXHN2/elN/B7QtTQYehgit5rAIjo1XrNvLYc3vCsjg4GDNmzpTHKoAxKlauLI8ZH1O4jeP1v379aoQJF95YtGixLOM2yrePefxdCB4ylC79G/z9+l3oedBChgrlrWzeYMGCUZo0qeVxIhWpbtjoRA8ePpCsXv4pWKAA1atbV5bfvnlTuuomTpokZ8GfP3/fDchdbNu2bacNGzbI81XQQFMmT6JoUaPqNb7hMf3EKnoPEiQIBQ0alGLGjCGv7zZkcoKWLF0qr3H9+nV5DV4/ZMiQVKVyFZo/f4G8xl3uWlVROkf33KUXJEhQCh48uCyzxq8fJkwYSps2rZQbN3LrDTl44KC8VvJkyaTMihcrLmdRu/fskefx62XKlFGW1a9XT7Zh3779UvYufs69O7fp/v17NH7CBDnL+NHfJ0Twb7kOKpCQoQ7+nBh/VsWKFqVVq1ZJmT+T6NGiUcSIEaQcN05c9Rl67F4FsAgdOrTso/zzM/ydT6b2Cf5+JUiQgFQQrfbLp+7tQvTo0ahPn97Si7Fu7RrKlj07qeCATp50oc9fvP5eb1Rty5mzZ9xfo2eP7vS//+XWS7/h3xkmTFiKHTu2lOPEiUPv3r+Txxs2bKRTp0+5v0bvXj0pd+5csqxu3TrSg8C4pyBGjBjSE8G4NyV58uTy2FrQoEFkGIHzwVjNGjUksZzf7/wFCyipHt5l+fLmlXU3bdokZd4Xs2XLJo+57SxSpLA8z6yd27dTqlSpSAVG0pv7s0RK67aBt8+63SpatIgMU+zYsVOGqi1/QxaXP0PVtsKPIXjQ8ufLKwcdy9ihd71+/YoiRYwkB0nLjyVBZ8DAgbRs+Qpq2qQJJYgfX+o84wPiixcvqEjhwh5ew3Lw+xUVANKbN6/p5atXKkio7OE1YsaMKevUrVNHhlV4LI/HRBs2bEAzZ82WbtVyZcvIOr/CB9tIESOqBiCwDDPwTmfBy3g8+JOnMUTG9dwoccNhBr+vrt2601YVWHFyWuxYsfSSn+Nt44beerw1lnrux08/vrqFfxeAV7hd4O/TwUOHdI33vHr5ir4aXz3sj7wf8snHypWrZNiiWtWqlCVLFv2M7/EwAR/ArV8jdy63A/+vWL7T3I3PycjWr5ErZ05ZVqF8ebpy5aqM7zs5OdH4sWNU8DBXAgfLQfRX+GSBgxXev1+/8tgu8HuNqk6CfnRwT5QwobQnZi1YuFCGLWrXqkXp06fTtb/m1m59Cwj45Ch8uHDf5T5YoF34OQQPWrVq1eSMlOcL8IzH01avXqNLHqVLm45WrFzpnkPAXzgee+QkKR7f69a1y3cHTuuETI52OYoeNnyErnFL/Nm33/tn6nzGES5sWBnrs+AxU778kXEvQNy48ahegwZUvlw56RnhswGO+lOndutF8YphdbbFDegHtZPlzJlLrm7Ys3evXuKWnMjLc+hGyfosjT+P16oBy5M3j5QDq8/C0ph81v96tZNyLwZfDte6VcvvEqY8J7RaS60+S27QrLfv5csXVCB/fl0C8L5ChQpRypQpJXfB8/eUy5Y8Bs/SpUsruTk8L4QF9zRwW9KkWTPq2KE9hVMHLmuev9fp0qWTXjfLAZkPfnzgNMPza3AwsXDRInnMB8+KFSpQn379pCegWLFisu+2at1GAosfsd6/2fPnz1WQlU+1C3bSblkvf6O2OW8et32fWS/jHCnLfslt5OfP39oDPqnyql3ggIq3r3v3btIrZO1n7QLz3G7xtnCblkv3xIA5CB60KJEjq4ZgKa1ydJSEGc6Y5h2OgwDe2QoVKijrvVAHIu76tyhVqiQlTJiAsmbLLglTxYqXkANyhAjhpdtr8JCh0r124+ZNOSDyT7To0eT1OQmKk4V6dOsmAQcnM3KSTv+BA93PDqzxhDS88zP+4vNlYrw9vON1VUFKX9UI8O/n7eCkIA5KLOrUri3XqPMOxN2qnCWeIUN6vdRr/Ps4+ZBxYNKyRXPpZejduxfdvnWbZs2eLcuGDB1KXTp3ls+Q8Tby+2ScOFmjRnWKET26lO3SpKEJEyZKMGZ5Pn8OHP0/Ur/v5Qu3y9QiR4okZW60OUHq3v37tGXrVjp0+LCczfCZID+fe4qePX8mz+fehoTqbIYb5t59+kjWN2dW87Xebdu2ldd9+FB9hqpBs+CGj3t+ALzCwf3K5cskIbmm2of46iJuFzhhl7v48+bLK+txgMpDbBZ8tl+hQnkqXaasPI+TdBm/Hs8TwcmBPGRwSH2POSGYeyPCqIMhHxAnTJwkw5gtmjeT4QROgOQDZtly5SWY8Yz3k7dv37hfofDixXP3/Yj3WU405uRqfo1y5St4eI169erSkcNHqGqVKtKO1K1TW/YhDix+hH8PJykybhtLFC9O8ePHpw7t20vd8BH/yb+chFhFva51LyoPo3BQwO+Lr3ioUb261KdJnYYWLV7inmTKJxbcRjx6/Fj2WfZCBQ78+UUIH54GDBjo3n66nHKRxMywapu5p3O8al8sCaPP1b5tuZyWA44nqk3g9oRx0jSfnMSMEUPaAA7sXr12W9eSKIrLZn8skPpDeqtvJmLkKPT8qcdM37+lqvqCVapQUXZG38YHId4heL6H4MGDUZEiRdwjZ+4RcD7udiWFvZ29+8GXzwi4IeErKSpVrESZM7tdscEZv0eOHKXq1arSHXWQu3H9BlWtWkWWcYZ1BHUgLlTQLSg5fOSIXL3AOyF3LXqOqrkrkQ+cvINnzJBBdipuFHhML1/+fHJw3rFzp3Q/8pkSd+lxt6EFZ1hfu3qNsmTJLGU+Q0iXNu13Zz8WfMZUv0FDGjxoID1+/ISSJklMJUuW1EvdXo+zqj9+/EAODg4yLwbjbeTJcyaOHy8HfB6u4Yx0y1kB5y6MGTOGkiRJQuXKlpPPrXbtWnKGwmcFHBRZPls+6J86dZpq1aopvShPXZ/KVS/ceHFWdNYsWSlZsqS0adNmev3mNUVXnwHnNzB+7l71elGjRpPPInLkSBIM7di+Q4YweGyWh2GOOTtLz0aWzJmlwfcN3CtVrERJung+4M10FztOXHJxOelljo5v4ysCFi9dQsuWLNE1voe/l/z7Dh0+JN+XHNlzUJkypWUZD3dyLx5/Lzkwt7QXfPbMeUgnT56k/OoMu7g6s2f8XV65ylG+q1GjRqE1a9fKXDKcu8D7Dy/n7yzvM9ym8D7Cv5/bhXjx4slrWPBBbov6rnOOA/dAJlX7Fef98Ppp7dNKt77lNbip59eIGzeufrYbzn8qqto5xpd08oHUzs5Oyp7xAT97zlw0Xx24b6l1OTeAh2ktvYN8sOUh0VevXsrv533fInHSZDKEywFAiBDBVcBSVQVSEWUZ90byCQp/Zhzw8Pby58WfJwcGfFCPED6CaoNKSOC2bv0GKlO6lHxm27Zvp4YNGkiPI59U8BVsPDcEXznC6wYPFpzyF8gvbST3dsyYOVOdaLyjTJkyuf9N+DN4qE40woYJS9myOaig7rC0KXwSU6pUKVnHp/HfiK94+fDu21DP38YnmZZjkmkcPHhHQL/aAjxSO6RkZpuldl7JYIZvcLWF7/gbV1uAR3z1Veiw4XTJHL5ahK/AADcq2MTVFhDwvH3zht6piJijYzM4KZO7/36UJAUA/tebt2+lh8U6Idk71LGG3r97J0OnEDAgeIDvcJ7A02fPqEf3HrR+/QZd+2ucY8Cz7A0cMIDWrVvvZcITAPhPfEk4D8ENHzZMchd+dOm0VziHo2vXrvT8xXPM6hpAIOcBwJch58F3/M2cBwCf5t9zHtDzAAAAAKYgeAAAAABTEDwAAACAKQgeAAAAwBQEDwAAAGAKggcAAAAwBcEDAAAAmILgAQAAAExB8AAAAACmIHgAAAAAUxA8AAAAgCkIHgAAAMAUBA8AAABgir+4q2a1GjXo/bv3lCxZUl0DPuntu3f06OFDSpgwoa4Bn/TixUvavWcPXTh3VtcEHP/yrpqrV6+h7j17UskSxXUN+CS+5fa1a9cpefJkugZ82rjxE+j92ze69Pf9yV01/UXwcPDQITp06LAugU87f+ECHVafcd26dXUN+LQkiRNT6dKldCng+JfBwxNXV1q4cJHc2hh83sMHD2jBosXUoX07XQM+LWrUKFSrZk1d+vsCfPAAvmujkxNNnTqN1qx21DUA3vMvgwfwXefOnaNqNWqSy4njugYCmj8JHpDzAAAAAKYgeAAAAABTEDwAAACAKQgeAAAAwBQEDwAAAGAKggcAAAAwBcEDAAAAmILgAQAAAExB8AAAAACmIHgAAAAAUxA8AAAAgCkIHgAAAMAUBA8AAABgCoIHAAAAMAXBAwAAAJiC4AEAAABMQfAAAAAApiB4AAAAAFMQPAAAAIApCB4AAADAFAQPAAAAYAqCBxs0ctRoCh4ylPtP2XLlyWnTJg91qe3s6fPnz/oZABDQrVy5ykMbkD5jJjp//ryHuhixYtGLFy/0M8CWIXiwQU2bNKaoUaLokte6d+tKQYMG1SUACOjKlStLqVOn1iWvtWrZiiJEiKBLYMsQPNigMGHCUIcOHXTpe0mSJKGqVaroEgDYgsCBA1OvHj106XsRI0agli1a6BLYOgQPNupnvQ89undDrwOADfpZ70PrVq0lgABgCB5s1I96H9DrAGC7ftT7gF4H8AzBgw3zqvcBvQ4Ats2r3gf0OoBnCB5smOfeB/Q6AIDn3gf0OoBXEDzYOOveB/Q6AACz7n1ArwN4BcGDjbP0PqDXAQAsLL0P6HWAH0HwYOO+fPlC4cOHo7Rp7enx48e6FgBsXbBgQSm7Q3bVLjzSNQDfIHiwUYZhyIxyPIvc0qXLKF7cuJQxU2bq2q0buT59qtcCAFuzbft2ypk7N/UfOIjs7NNQ3nz5qXGTpnT79m29BgCCB5u00cmJsmbLRiNHj6LRo0bStq1b6L8RI+j4cWd6+/Yd2dnZ04CBA+nVq1f6GQAQ0B08dIgKFS5Cbdu1p3Zt2tLRw4dokGoHzp09Q7Fjx6KsDtmoXfsO9PAReiIAwYNN2b1nD+XJm4969OxFvXr0pAP79lHBAgX0UqJYMWPSuLFj6OCB/XT9+g1KlToNjRo9ht69e6fXAICAxsXlFJUpW45q16lLtWrVJJcTx6lixQoUKFAgWc7TUfft04dOnXKhoEGDUPr0Gahnr1707NlzWQ62CcGDDTh69BgVK16CmjZrTs2aNiXno0eodOlSeun3EiZMSLNmzqCtWzbT4SOHKVUaO5o6bRp9+vRJrwEA/t3FixepWo0aVLpsWSpatAidPX2KateqRUGCBNFreBQtalQaMXw4OR87Sk+fPqM0dnY0aPAQev36tV4DbAmChwDszJkzVKFSZapSrZqcSZx2OUlVq1aRTGrvSJUqFS1dvJhWrVhB69atJ7u06WjhokX09etXvQYA+Dc3b96kBg0bUYGChSgT3znz7Bk5qQgePLhe4+dix45NkyZOoH1799Dly5elh3L0mLH0/v17vQbYAgQPAdCVK1eoVp06VLxEScqb53/SODSoX/+353DImDEDrV+3lmZMn0YzZsykjJmz0Jo1a/VSAPAP7j94QK3btKVs2XNQwoQJJJehY4f2FDp0aL2GOYkTJ6Y5s2fR5k1OdPDQQemhnDZ9OnoobQSChwDkzp071KRpM/pfnryURp0NnD93llq1bEkhQoTQa/yZ3Lly0c4d22nI4EE0aMhgyqHKW7dt00sBwC/iq6f4KqoMGTOqQCEUnTlzmnr17Enhw4fXa/wZnkxq2ZIltGLZMlq7dp30UC5YuBA9lAEcgocAgLOf23foSFmyOlCMGNHVGcVZ6tqls0wA5RuKFS1Khw8epA7t2svv5QxtztQGAL/j5cuXctUUXz3FV1GdcHamoUOGUJTIkfUaPitTpozSQzlzxnSaOXMWZciUmRwdV8tl4RDwIHjwxzjbuVfv3pL9HDhwIHJxOUn9+/X7K1PJciZ2hQrl6eRxZ6pZswbVql1HMrY5cxsA/h2+Ouq/kaModRo7unHjplw9xVdRxYoVS6/hu3LlzCk9lMOHDaVhI4ZTdlXevGWLXgoBBYIHf4izmwcPGSrZzk+euNKxo0dknobo0aLpNf4ezsyuU7s2nTtzmooUKUyly5Sh6jVrSiIVAPw9Hz9+pMlTplDK1GnIWQX127dtlV4AvnrqXyhSuDAd3L+funbuQp27dKV8+QvQ3n379FLw7/xV8MDRa6UqVSQxZ8OGDbrWDXeNrVu3TrrQeSKTEydO6iUBB2czjxk7TrKbL166SHv37KbJkyZSnDhx9Br/DmdqN2/WTPIs0qdLL7PSNWrcBLPSAfgynmJ+7rx5lMY+LW3atJnWODrS4oULKUWKFHqNf4d7KMuWLUMnnI9Rw4YNqGGjxlSiZClydj6u1/Df+JjDPa6p7expz969utYNJ45yYjnnoHXv0UOufgtQ1EHXWyJEiqwf/Vtv3rwxEidNZkSOGs04d+6crv2mc5cuxsmTLroUMKgzCmPa9OlGwsRJjAqVKhnqS6iX+F3Pnz83+vTta8SMFdto26698eDhQ70EApJYseMYjx4/1iX4m75+/WosX77CsEubzihQsJCx/8ABvcTv4rZs6rRpRoJEiY2KlSsbZ8+e1Uv8L27ruJ3jfeHGjRu69pvGTZoaN2/e1CW/ZfHiJfqRef5u2IIvK0qWNCmFUf+Wr1jpu1nO+Aw4ePBguuS/cbYyz6vA2curV6+h5UuXSkZzmjRp9Bp+l/WsdEGCBKZ06dNjVjoAH7Jh40aZYn7UmNHuU8znyJ5dL/W7ggULRo0bNaIL585Szhw5qUjRYlS3Xn26du2aXsP/4bYuefLk9OXrF5lXR53g6iVu+D0H8+YcGv6Jv8x5CBM2LC1fvkwuTaxRs6Z02/0MD3EMHDSYOnfp4m8S+jhY4PkUpk+fQdOnTaUN69dR5syZ9FL/g2el43wM56NHydX1qeRpDBk67LsdDAB+bdfu3dIN3qt3H+rd8/sp5v2LkCFDUts2rWWYM1myZJQr9/+oeYuWdPfuXb2G/xI1WjRauGABnT17lhqo4EidmOslXtuydasckzp17iwzAPtLbh0Qv+ZXhi1Y+YqV5N/5CxYYwUKENDp26iRlps5uPQxndOjYUbrN2fnz56V7aeasWVL2izZv2WJky5HDUGcVhtOmTbo24Lhy5YpRs3ZtI178BMbYceON9+/f6yXgH2HY4u84fOSIoc7SjZSp00hXszph0ksChqdPnxk9evY0YsSKJW22f/tOWY5J3KbxMUkFBlJmLVq2Mu7dv69LhgznNmzUWB5fvXrViJ8goTzvX/iTYQt/HTwwFbnJH4sDCWYdPHBuQNjwEWSczUKd9cp7efXqla7xG/bu22fky1/AsE+X3li1ylHGMwOy06dPG+UqVJT8FQ7mPn36pJeAf4LgwXfxflK2fAUjUZKkxoyZMwP8fsK5Ue3ad5CTvN59+hjPnj3XS/w262NSo8ZNjOAhQxlr166VsnXwcO3aNSNk6DAejj/jJ0wwQocNZzxxddU1f49N5Tx4NmTwYLkkqFnzFnTk6FFd68Zx9RqKED68jDlZFCpYkN6+fetnLhk6fvwElSxVmuo3aEj169eTeRPKlSvrfke7gMrOzo5WrVhOixctpKVLl1G6DBlp2bLlv+zuA7AFPMV8zdq1ZYr5/Pny/vEU8/5FjOjRadTI/+jI4UP04MFDGeYcNnyEvxrmnDB+HGVzcKC69RuQOpHVtW7WrF0nM/6GDRtW17gdk/jKjB3bd+ga/8HfBw88z8CC+fMoQYIEVKlSZbp3775ewvMhvKI3KlCwFj2621wI/3rq1PPnz1PlqlWpfMWKVKpUSbmjXc0aNbx906qAImuWLDI3/vhxY2nc+PGUxSHbd5fhAtgKvrTZMsW8XRo7H59i3r+IFy8eTZ0ymXbv2kmnz5yWy9PVGTp9+PBBr+F3cdL+smVLJZGyXIWK9PTZU72E6NWrVzKJl/XxJ3r0GPKvfztxChBHKv4j8Vnsu/fvaP6CBbqWKEvmLBKxnj59Wte4TbDEf1wHFRn+C9evX5fsYp6PInu27HJG0aRxYw+9I7Yof758cpe+vr17Ua8+faXx3L1nj14KELDxFPM8P01WFTzHjBnD16eY9y+SJk1KC+bNk4Txnbt2yxw/M2fNos+fP+s1/CbuQeG7ET98+JBWrFipa9XJUtYsEiQcPnJE15A6Rr2Wk8YcOfz+1TLW/GXw8NTVVT/6hi+Vma++ZNb3oi9ZsoTctGXQkCHuUd3sOXPkUqGoUaJI+W+5d+8etWjZinLmyi07BJ9RtGvbhkKFCqXXAFayZEk6duSwTDjVtFlzKla8hP/NRgb4Bb50mS9h5kuZ+ZJmnmK+X9++f2WKef/E3t5eThCXLF4kB2P7dOlpyZKlfubmW65PnuhH36RPn45mTJumS24K5M8v9wAZMmSo+1WCs2bPplo1a1LcuHGl7F/4q+Dh0ePH0rPAXXhTpk6VSzWtce4D3/jFMi7I621Yt5ZChghJpUqXoS5du1L48BFkzvW/5bH6UvHlOBkzZ5YG4czp09SzR3cKFy6cXgM84yi8atUqdFo1pBUrVqAq1arJ9dN8GRRAQGA9xfzTp8/kUuZ/NcW8f8LDnE4bN8jMupMmT6bMWR1klsd/5f79+zRj5ky59JRPTB88fKiXuOH2i+9gajmp5WOT46pVFDNmTMl142MSB0ATJ4yX5f6KOiP3Fr90tYV/YD3DYpu27Yz7Dx7oJWAWX845Zuw4I268+EbtunXl8ibwG3C1hTnv3r0zRo8Zi++yD1m/YYORKUtWI0euXMbWbdt0LXiXTV9t4ddwjgVnB/Md7Th58/ChgzRm9CiKGcMtKQbM4x6kNq1byVBPiuQp3CeU4aEgAP+As+mnTZ8uY/b7D+ynTU4bae7s2ZQ4cWK9BvyOEsWL09HDh6hdm7bUtl17ySU7eOiQXgq+CcGDD+Es4AkTJ0rQcOr0Kdq1cwdNmzqF4sePr9eAP8WXN3Xv1pXOnjlDkSJFpEyZs8isoU+8yIEB8Au4S9oyxTzfJImnmOcf/zDFvH/Bl7Xz8IDLieNUq1ZNql2nrtys6uRJF70G+AYED3+Is355rIvvqrZ9+w5at3YNLZw/X6ZcBd/BgcOggQPphGosPn78RPb2aalf//708uVLvQbAv+fouJoyZMpMM2bMpBnTp/nbKeb9C84rqF2rllz2XrRoESpTrhxVrV6dLl68qNcAn4Tg4TcZhiGTG6VNn0GyfhctXECOq1ZS2rRp9Rrg23goiIeEeGjo9u070uvz38hRch01wL+yecsWypYjBw0dPoyGDR1CO3dsp9y5cuml4Nv4UvxmTZvKZfCZVfBWoGAhatCwEd28eVOvAT4BwcNv4OzeTFmyyjAFZ8nyJEcOWbPqpfC38dAQn9lt37aVjjkfo5Sp09DkKVNknBngb9m3fz/lL1CQOnXuQl06daZDBw5Q0SJF9FL42/gOzB07tKdzKohImDABZcueg1q3aUv3HzzQa8CfQPBgwvYdOyRZr9+AgTSgX1/au2c35cubVy+Ffy1FihS0ZNEiWuPoSE5OmyiNfVq5tPdXd10F+BPOzsdtcop5/yJ8+PByueSZM6dVQBGKMmTMSF27dSPXp99mfgTzEDx4A2fvchYvR61tWreW7N4SJUrIsk2bN0sPBCdF/Qg/n6dWXbXKkV68eKFrbQNfy87XMvuEiZMmyT1MfoUnZ1m7ZjXNnjWTZs+eI+PO/NnzUBOAT+Ep5itVqUIVKlWi0qVLeZhinnsheB4Cno/mR987nreE2wUe9vQ8P0BAd+rUKcri4CD3GfpTy5evkHlgfiVK5MgyD9CJ48fV731Hdnb21H/AAORK/S6+XtM7bHGeB7VzG2XKljOSJEtuzJ4zx/j8+bNe4lHZcuXlzp5qh9A13/Ctc1Pb2RuRokT949tP8+2szfqd5/ik/QcOGFu2btUlt+vc79y5o0vmqDM8Y926dbrkfXybc4fs2Q3VWMlj8Dm2OM/D7du3ZY6GOHHjGaNGj5HvtFd4fhduF370neVbbPPy390fLPxju8B3yxw3fryHuwf/7jZdunTJWLRosS553/Xr1436DRrK31EFeQH+TsZesblbcv8Nx4+fkC/VhIkTjQ8fPuhar6mzYSNrtmzSoHi2evUaOXDxPdv/BDdQNWvX1iXvOXjokPHfyFG65Dfwfet379mjS38XN+IpUqWWW/7aYkPhG2wteLh586acTPTt1++Xt/UfNnyEtAt58ubTNd+cOHFS2gUOHv7kpIIPwnwLaDP4oNm5Sxdd8htWrXI0Fi5apEt/15kzZ4xcuf9nVK5a9Y9P8PybPwkegvRVdCfETw0dNpy6dumiSwHbtWvXqGixYjRp4gSqWbOmh/tleGXDxo1UvWo1GjxkiMxRzjfqsug3oD8VKVyEDh06RO3attW1bve6mDFzFm3evFmmKo0aNarU8/i8Cjho0eLF9JBvSZsmtcx/36BRIzp2zFmtF4UiR44s43jW+MqPg4cO0oULFyh69Oh0/vwFql6jJgUNFpQ+f/rsfl35zl275PWPHTtGKVOkkGlVGd/O/OKlS/Tx40caM3asdCfy/UK8wteub3RykkvR1NmC+xUm/NpXrl6Vm3/xcE6WLFno0OHDst0pU6aU7sU26jPgqyT4NRInSiRXRixesoSWr1hBH9TvTpY0qbzW/gMH6JSLi0zvvXLlKklI5eu29+zZQ3Z2bu+Ffzd/TnzDHO4q5jvx/Qy/H76Ua9To0fTy5Su5bS78mZGjRlGzZk0pTOjQuibg4mmk8+YvIPek6dihg2T1/wx/h4sXLUZjx4+nAgUKePh+9u3XX/Ii1q1bL3OXWKbU52HNefPnk+Pq1RQ8RAj3eWJ4v1y6bBktW76cXqnvbsqUKWRq5Fq1a8s+Fy5cWIoVO7YkCVrjton3mYsXL6ntDabew1OqUq26vEbgIIHlknL+3epkSb3+chluSZwksfsto3lohtsunk7/v5Ej5XdyW/KjfI49e/eqbVyh9tWTlNbeXl6b701zWLUD7969p/kLFpKDQ1a5EdhM1f5ly+YguWT1GzaQWwd8+fxZcpfY1m3baL76LC5dviy/k1/LrQ3YK+3krNlzpF24rJavW7+eMqRPL8/jtpU/w92798ikfUmSJJH6H+H2ktvtVY6OajuP2FSS65kzZ1V7aqdLJukg4pdsqeeh/4CBpiJz7nngiDVVGjs5q7XgLnvu1hw/YYKHngd1gDeaNG1mfPr0Sbr0+bNVO6ksa9GylaF2EJnemqPhTp07G69fvzYmTppkpMuQ0bhx44ahDuyyrsXwEf9JLwNr2aq1RNJq5zSKlyhp9OjZ07h165YsGzxkqNGrd295vGbNWiNBosSG2tFkOMAubTqjdJmyRsdOnYxWrdsYwUOGMmbMnCnresZdffze+Ow9Z67c8pzDR44Y9unSG8WKlzAGDBwk237ixAmZNpbXZ9zdy705y5YtNx48fCg9OrXq1JFu27t37xqJkyYzpk6b5n5Wli9/AWPQ4CHyGs7OzkahwkWMchUqymvx+vHiJ5Czv3PnzhlhwoX3dvcvb2vK1GnQ++ADbKnnYf6CBUalKlV06de450Ed2IzCRYoaZctX0LVuvRe8z3BPmHXPA+/zNWrVkt4E7oqPHjOmsXbtWhn6rFe/gUxlzfs176u8z6tAQ7VVA4wCBQtJu+D5rJn3syVLlspjXp+ncnZ1fWo0btLUqFO3njyHX3vBwoVSZkeOHJW/KQ/BXrx40cibL7+Rv0BBGYLp3qOH7GeWNsQzno5fncTI46rVqxsVK1eWoV/ej3kf5vaH24uLly5L+xoqTFhZ9979+0bmrFmlV5L3a8ZtsNOmTdJGcI8A7/fcbvJQD/fm8GtxG3Pw4EH5Pdlz5pTncVvJU39zu8avFTlqNGlPvIOfw5/5r3qUApI/6XkIxP/TccRPqT80/S93bl0K2M6cPUdTp0yikjop8ld4quSxY0bTnLlz5TKtq1cuS3IOX1vM8xDMnTePRoz4j27euC7rc9JfnDhxKHHiRFJWB2tq1bIFValcWe7l37RpE6lfu24dbd26jVwfP5Kz9hEj/6MjXky9yjeO4rP4/v36yWyL6qhIsdVZiNqp1Nl1NrlciSP9pMmSy2tZzpjUTk3pVbQ+etRIyRTnXgjubWFcdjl1ipyPfrt1LOMeir59+9HGDeulrIIfevnipczwxs/hMxT+LCz4pmB8xjZzxnQpJ0iYSJ1NzJPv0tq162j+wgVUrmxZWTZ9+gx6++4tHT54kNp36KjeyxOaN2eOLGMqkCDn48fl7np8uRXfmW7c2DHSexEvQUKZhMe7l8wmTZ6C1jiuwkx/fyh2nLhyJ8houucsIOP9nHu9+I6v3qEO2FS+XFm6dv263JiPr8JIlSqVJBDzPAQqyKfyFSvRqxfPZQp2vrxYHegob9487s9PpPZrnpp95MhRVK1aValfuHARXb12jS6cOyvJ2ps3b5HJ6TzjKwp4P5k0YYLc8l8FJHKWyfvk+/cfaPy4sdKjkThJUpkRl+/2y+rWq08vXr4kx5UraMDAgXTo0GHZtxiX+XfevX3bvbeEcY9E4aLF5GZ2jHsbj584Lncw5qREviJlzWpHWca4pyPX//5Hb1+/knJO1R60aN6cqqu2jBMYc+fJS106d5Jl3BvAn83tWzdp7tx5tG3bNtqyeZMsY3xXSr451YF9++SGYyrQkUu3+VJtnodn2JAhVKZMab32z/Fkf6FDhaIof/muy/8KHxf4e/k7vv31f2HPrl30Sv+hA7phw4bLzmAWd33169efJk+eQpUrVVQBQmwv757JB+Ap9epR6tSppFymdGnZubkLnrsRuWyp94727dpRuXLlpbuwR/duVF+9tmeHDroFHdZdrbly5aRt27frktvMjRY8Z/zKVat06Zt9+/ZTmLBhdImocKFC+pHbNLERIngcTuHhhB85ogKTDGrntn6/lvUDB1avFd7jbYmtXytWzJjUrWsXuY9ItGhRZX0eCvEOdWYh3beWxhLAO8KHD/db91PhfYQP2iNHjabhw4bR8+cvKGHChBI8WFNn/fS//+X2sD/wkOm48RNk+NK63juXgfKBu0ix4pRMBcrtVBvRvt23YVMLHt589Pix2qfdhikYtwu9evXWJaKIVu1CMRUgDBg4SC5zjBE9uq5V7YsKMEKFchsCZTyTpmU2zUCBAlN4E+3CSRcXOfmyfr+DBw2UIRl+3s9ei4dbRgwfTqNGj6EwYULLlS7ebRcYn4h07dLZ390e+5/gngfwSB1QjQyZMsuwgnfwsIWK4OUxd7Nztx8nMVnupOl52IK75CdNnqxLbrhLnxOG+MoMa1zPuAuSrxbwyps3b6QLk7sNQ4cNZ6hIXOorVKpkjPhvpDze6OQkXaS8ngUPL5QoWUoec7cod0tacJchJ4Z5xsMnvI3WXf7c/cl4eMJzlyZ3T1qGLRh/DpaESU4646tZrFneb4eOHWUIxhp3VVqGLbhLlYdxuBuW8Wd+4OBBefwr/Do8pAN/zpaGLXgIgofdvNutbRm2YLxvc5c/f6c5GZt5HrbgNqNps+by2IL3Bx769Jx0adlPuG0pWaq0PPaM2wV+bb6LJ1/t1btPH6nnIRPLvsXDpbwN1leK8fBMGvu08piHRarXrCmPGa8fNnyE74ZON2zcaESLEUN+pwUPzzAegvCc7M1DCZZhC8bDGpaESR6C5e21/h1PXF3ltbk943bNGl8JZxm24DaXh3UsQ7XcjnMypndwGxk/YSJdgl/5cfhnw/Lny0cJEiSgSpWreOs6ZPU5uke3TZs0oXfv38uZgeVOmuo46yH6LVK4MA1U0TsnEzJOauIEo/z580uyJnc3qp1eonvurmMcXfN9HBgPA1ibNn2GJFD27dOHevfqRQcOHJR6t+d8lK68LJkzS9cyJydaXLp8Sa5Lt+Brny04wapihfK69A2fRXGiIkf2jM9aHFd/6zLlz8Iz67pAepv4PRRWnwMnXvL18Pz5cKLlosXfts8rltdav2EjhQ8XjiJHjiTdnB8/fZLX+NXfSzU+MnHU9GlTdQ2A93BPVcWKFdXZfDFJ5P0V63ahcqVKFEO1B5zclyGDW2Iftwtu/7qtw+0CJ/qpEwUp81wInAhYpHAhUoGxDGPwvXS492P2nLmyDu/jfFM+5rld4Hvu8PK2bVrTlEmT6KDufbQ8h1+Lk7VTp04tvZ4WPLzhoV14822funTpMhUvXoxChQqla9zw9NsfPnykHj17yety796ChT+e+4ZZtwuBA7m1C5wcniljRgoRPDg1btpUEki5N2DIkCHuyd1esbzWzh075XV4WJjfI7d93mkXdu3eTY0aNably5bqGvgl9aGDF7jXgc8EOAKfO2/eD+d44LNdPgPm64QtZ2B81sxnxszFxUXODEKGDmOsWLFSzvzVwU6S/zji5wQdTmCymD5jhhE+YiRJokyeMpUkCTG+Bpoje94my5m+RbUaNaSek504AdGSPMm9G7HjxJUzbcbJmRyVcyIkX4LavEVL9x4E7nnghM/ly1cY69evN8pXrCTb6RWO/rmHg8/COMmSk5T4jMRyX31OkmK8nZzMxT0mlmu469arL9vAv4f17NVLPhtObOL1VKMs6/4vT175XDl5lHEyJPdScK8HJ0hyUmjU6DGk54SvF+dt523hpCev8PwOnGDF2/ijdcA8W+p5sOCzcU425gQ/voTaK3xmzYmS/fr3d0/kHTN2nPs8I9w+NGjYSNoAdYIgnyHvi9wWcLIyf7cLFirsfvY9dNhw2ef4jDxt+gzuiYWc7BwxchSjdZu23/0d1EmI7DOcIMzL+bJxxomTvL/xcu6Z4H2Mk525h4OTJ7mnwfJ7+b3y2fjMWbOM7Tt2yJw2lt/tGc+1wO1WzFixjdz/yyNJ0dz7wL18SZOnkPaJ8WtzDy2/d8scGNxjyQnT3I4y7gXgtpF7Ofj3c28l97bw7+fP3tLG8XvmtovbIv4seB3u3eQkT/7MeJ/nhE1Le+wZt1H8d+B28l9dQu5fIXj4hR07d8qBnoMIPuBZDrYWvPNxA8I/nLnMrNfhbGHLcv6xXsYHWUu3prUnrq6yo/FzrXHgYdmprXEdd9cdPXpMMrWt8Q5s/Tt5XV7P0q1nYRm24J3s9OnTuvbHOEOaGx3LNvKwjeU98mPGAZilzjIExJ+R50aOGyPe8S2fn/XzLK/FwZvnOh6ysAwNcdDByzzj4I4bEm4cOXiz/A7wGbYYPDD+vnKWf8LESeQKIc9DnNb7veXEw3o/tN5f+Mf6e8nzMHg14Rx/148dc/7uRObp02ffXWnBeF/nZdyWcDtgjfcX69fh7efX9tweWYYt+CDLwy2/2n94n+TPxjJ8Yb0vW9oK/hwsdZbt5jrP28jDQ7ztlpMY6zbA8lq8PZY6S7vA7aQlwOH20KthJv4sOaDiQIffo/VwLngPggdv2rptm4yr8dkxR8UBjeecB/+OG18+S+Eznnnz53/X4ILPsNXgwYIPuHx5Mk8+xmfeAS049Zzz4N9xMMXtHAcNnI/FQRT8HuQ8eFPBAgXkUqAe3bpTt+495DJHnlAlIOBcgwsXL8hlYnfu3NG1/tPVq1epVp06cqOiggULyP0G+CqYX030BfA7MmXKKJctT50yWfKTMmd1kLvuBgScW3FctQl8RQbnOflnb968oSFDh1EaOzvJq3A+dpSGDR1KUW3kkkzf4O15HuCbr1+/SuJhv/4DKEXy5DSgf3+5GZN/xZeOffjolnQVKmTI72av9A+4oRs4aDCtXr2aWrduLfNmhAnz7ZJS8B22NM+Dd3Dyc+8+fWWugAED+lPePG5zNvhHnPT49p1bEnXwYME9XMrtX3z48IGmTZ8u8+zkzZeX+vTq9csZJ8GbpP8BfguPsXGyEyf0VKlWzT25Ef4ezg/p0rWrdENydyR3S8LfY+vDFl7h8Xue2ZFnMeUZES2JgvD38DAlX8LJSZg8u6d38rjAHAxb/AGe2IkvzeSZ3jJnykz5CxSkRo2b0O3bt/Ua4Fv4EizuabC3TyuXmB4/7kyDBg70l2dHELDwZdpVqlSW2RZ55tXKVavKbK/nzp3Ta4BvUcc0WrFiJaXLkJEWLVpMixYukJkyf/v+DfBDCB58AF/zzFNAnzt7RmaVzOqQjdq17yBzIIDP4m5InnEvVeo0Mg67f99emaKaZ5wE8Et4+uaGDRrQedUu5MqZi4oULSZTP3OOEfg8vhmfQ/bsNGrMaLktAE9h7d3p6sE8BA8+iO+myRM1nTrlQkGCBKZ06dJTb1XmnAL4M1++fJFJb3ju+d179tAmp400Z/YsmfsfwC/jyY14oiY+ueCJpnKoQILvZ3P/wQO9BvwJvnsp9/p27dZdEto5sZ0T3MF3IXjwBZw89t+IEXT0yGF6+PCRZPjy7HBvvTFbJXjE3ZB8S27uhly8eIl0Q65cvgw3tAJ/h+9z07NHdzpz5rTcdyFDxozUrXv372aGBO/h23PzDcfq1W9ADRrUp+PHjnr7Bljw5xA8+CK+uQpfwsV3rHM55UKp0tjJVMwfP37Ua8DPbN6yhbLlyEEjR4+SO3WiGxICAr7p09AhQ+iEszO9evWa7Ozt5Y6xnMcDv8bTZ1erUYPKlCtHJUoUl8uxa1SvLtNuw9+DT/sv4DtlLpw/n9auXi23z01jn1bmsOeuePjewUOHqEDBQnJ7825duko3ZIH8+fVSgIAhVqxYNGH8ONq3d4/cZ4bzeMaOGy95PfA9TkTnhHSeYydTxkySqM4J65y4Dn8fgoe/KF26tHJP+7lzZst96TNkykyOjqv1UuAbAZUtV55q16lLdevWUWdmx6hs2TJ6KUDAlDhxYpo7e7bk8ezZu1fyemapMk4u3HDiefsOHSURnRPSOXeEE9Q935wL/i4ED/9AjuzZafu2rfTfiOE0dPgwyp4zJ23ZulUvtT2WWSF5/LJQoYKYFRJsEufxcD7P4kULaenSZZQ2fQZavnyF5P3YIr6jJiecc+J54MCBJBGdE9I5MR3+PQQP/xDf3vrQgQPUSUXVHTp2ooKFCkuXva3gWSGbt2hJuf+Xh9KkTiNnFC2aN6fgwYPrNQBsT9YsWWjzJicaP24sjR03jrJmyya3rrcVnFjOCeap09hJwjknnnMCOmYx9VsQPPxjPKFM+fLl6ORxZ6pduxbVql1Huu65Cz+gcn36lLp07UqZMmeRSZ3OnjlDXbt0xnTSAFby58sn+RC9e/akHj17Ud58+Wnvvn16acDDieScUM6J5ZxgzonmnHDOiefg9yB48CO4i752rVp07sxp6brnLvwaquzfb0hjzXpWyHfv3mNWSABvKFWqFDkfPUKNGzeiho0ay03f+CZ2AQXfK2j+ggWSSM4J5ZxYzgnmnGgOfheCBz+Gu+y56/78ubOUVu1MefLmo6bNmtPdu3f1Gv4PZ49zFjlnk3N+w4H9+zArJIAJfBli9WrV6Iw6Iy9duhSVq1CBqqjyxYsX9Rr+EyeMc+L4nDlzJZGcE8o5sRz8PgQPflTo0KGpS+dO0qUfLVpUypwlK3Xs1IkeP3mi1/D7rGeF5CxyziafPWsmJUyYUK8BAGbwZYmNGzWSKa+zqjaBL2nm3ohbt27pNfwHThDnRHFOGB+hfjiBnBPJwf9A8ODHRYwYQW75ffLkCXUw/kpp06ajfqr88uVLvYbfY31zGswKCeDz+DLFDu3bSZJx/PjxyCFbdmrbrj09fPRIr+E3cUI4J4ZzgjgninPCOCeOg/+D4MGfiBE9Oo0eNZIOHzpIt2/fkUzk/0aOonf6fvt+hWVWSL45DWaFBPBd4cOHp969etHp06coWLCglD59Buqpys+ePddr+A3Wc7hwYjgniHOiOCeMg/+E4MGfiR8/Ps2YPk26+Y45H5PM5KnTptGnT5/0Gv/GgYMHpQu1c5eumBUS4C+LGiUKjRg+nI4dPUKurk9lyuuhw4bTmzdv9Br/Bid816xdWxLACxcuJHO4cGI45nDx/xA8+FMpUqSgJYsWkePKlbR+/QayS5uOFqoyZy7/TZYzijp162FWSIB/LE6cODR50kTas3sXnT13VnooJ06a9Nfvp8MJ3pzozQnf9nb2kgDevFkzzOESgCB48OcyZEhP69aukd6I6dNnUKYsWWnt2nV6qe/hqyYsZxTWs0Li5jQA/16SJElo/ty5tH7dWtq2bbskLc+dN8/Xp7x+4upKnTp3lgRvTvTmhG9O/OYEcAhY0NIHELlz5ZJJVQYPGkgD1E/O3Llp+44deqnPsZ4V0k6d1WBWSAC/y97enhxXraQF8+fRggULKX3GTLRqlaOPT3nNCdycyM1zuHz+/EUSvDnRmxO+IWBC8BDAFCtalI4cOkTt2rSl1uqnSNFidOToUb3091lmhcyYOTNmhQTwZ7I5ONDWLZtp1Mj/aIT64cskObn5T3HC9shRo2V45M6du5LQzYndnOANARuChwCIM5grVqxAp1T0X7VqFapWvQaVr1iJzp49q9fwPsuskHZ29jIr5InjxzErJIA/VahgQTq4fz917dxFkps5yZmTnc3iBG1O1OaE7aPHjkoC9/RpUyWhG2wDgocAjDOa69WtK1Ne582Th4oVL0G1VfnatWt6jR/zPCvkwQP7MSskQADBSc2c3FyvXl2qW68+lSlbjlxcfn0/HU7IXrR4MdmnSy+J2pywzYnbnMANtgXBgw0IESIEtW7VUvITUqZISbly/49atGxF9+/f12t8wwlVs2bPxqyQAAEcJzfXrFFDprwuWrQIlS5blqrXrEmXL1/Wa3jEidickD1t2nTpZeBEbU7YBtuE4MGGhA0blrp360pnTp+mCBHCU8ZMmSWPgfMZLLNCpk2fgZYuXUaLFy3ErJAANoCTnZs1bSpTXmdQ+3++/AWoSdNmdOfOHVm+Y+dOScDmRGxOyObEbE7QBtsWSB00fDbtFvyN+w8e0JAhQ1WwsJTChQtP0WNEkwxpTO4E3hU7TlxycTlJ0aJG1TXg37148YJGjR5N06ZOo/ARI1DQoMGoX58+VKFCecwICe4QPADNmTuXps+YSfv37tE1AN6D4CHg2rd/v0wnffniBcwICd/BsAVQ9OjRZXpbAACLyJEiUbhw4RA4gJcQPAAAAIApCB4AAADAFAQPAAAAYAqCB/Bxhw4flmmxEyVJSjly5aJNmzfrJW4zVvYfMECW8eVg58+f10sAAMC/QPAAPo7n0Z8zZza9e/dWJp0qUriwXuI210QxFVhkypSRpkyeRKlSpdJLAADAv0DwAL6Cp7EeNXIknThxkmbPmaNr3YwaM5omjB+Pa8YBAPwpBA/ga6pXq0bFixWjrt26yYRUbMHChXJznpgxYkjZ4s2bNzR9xgyZNrt3nz704OFDvYTI2fk4/TdyFA0f8R8NHTZc1wIAwL+C4AF81aSJE4inIWvdpg09fvKE1q1fLzfrsvbx40eqVaeuTHk7ZvQounXrNuXJm4/ev39PV65coSlTp1LHDu2pcaNGtGbtGv0sAAD4VxA8gK+KHTs2DR0ymNasWUtlypalQQMGfDdcwTfciRghAr1+/Ubu7OfgkJWuX79OmzdvodOnz9DRY8fk/hsRI0agXj176mcB+F/c0zZm7Djq1Lmz/IwaPYbu3r2rlxIdPXpMeux42bz58+VulgB+CYIH8HUN6tenRIkSUdy4cSlp0qS69ptt27dTqFCh6N37d/JjZ2dH27dtpawqiMiVO5fMtZ8qdWrq178/5cyRQz8LwP8KEyYMNWvaRIJlvvU9B8xx4sTRS4myZMlMt+/coQgRIlLtWrXkDpgAfgm+kfBXhA4d+ofT3PLwxNu3b2XYwvqHky75nglHjxymWjVrSd5DxsxZ6Imrq34mgP/Ft8qfOWO6TAE9ctRoXeuGh/g+fPhAPXt01zUAfguCB/jn7O3tJRfixo0buobk8ZatW+nAwYMUOlQoGvnfCHI+eoQ+f/pEU6dO02sB+G/x4sWjQQMH0Hr1/V+5cpWuJerRoycNGzJEl77h4Ytdu3fL+q9evdK1bq5evSr1/O+tW7d0LYDvQPAAfwVPDvX2zVtd8qh6taoUOHAgypMvv5yBTZs+nZo1byG9D48ePqL/Ro6U9ZInT04O2RwoYcIEUgYICJo0bizf9bbt2tGzZ89lUrUkSZLIjzUOCKrXrCkBxPETJyip2h+OHXOWZTt37aJly1fIvCmcSzFs+AipB/AtCB7AV/EllzzPQ2rVqAUNFoyWqwaOAwlrsWLFoi2bNlOa1Klp1KhR5KQe8wRSnAcRIWIEOnvunCSO9e3Xj1KlTElVq1TRzwTw/ziBeNrUKfTy1Stq1aa1Cp5nUIf27fTSb1q3aSu9Efnz5aPevXpRggQJqFfv3rJszJixlC5dWgk4xo8bS8mSJZN6AN8SyFD0Y7BRG52cZChgzWpHXQPgPbHjxCUXl5OSmwJ/hucw4TlONjltlADBGg9RxI2fgPqq5RaPHj2kYCog76+C6nbtO8gcKh07dJBETM6n4J8/cU4F7dVq1CSXE8d1DcA36HkAAPADuFeNxYgeXf619uTJE0ksrl+vLrVr20Z+hgweLIEDGzJ4kFyVwfeNSa5eZ8fOnVIP4FsQPAAA+HGRI0eWq5VWOXrsHdy7b5/8++DBA0kqPnv6FGVIn4Fq1a5DL1++lGUAvgHBAwCAH8A3kWOfP7v9ay1ChAgyrXvHTp1p2bLl9O7dO3LatIl26h6GiZMmSc9EwoQJadHChZJX9PHTJ1kG4BsQPAAA/GNHjh6lRUsWy+MZM2fSmTNn5LE1nuqdJ1urWbs2RYgUmf77b6TkOLArV65S6TJlad/+/TRBrdepYweKGiWKLAPwDUiYBCRMwm9DwqTP4F4D6ymogwYNSsGDB9elb7i55hvF8RBGhgzpda3bdNdv3r6lixcvyk3nfOJqCyRMws+g5wEA4B8LGTKkzMJq+fEqcGB8WWfmzJk8BA6Mp7uOHi2azBeByzThb0DwAAAAAKYgeAAAAABTkPNgg3gymdVr1uiS2yyQfC+JbA4OuoYoXNhwNH3aVBl7BfgR5DwEXMh5gJ9B8GCDrl+/Tqnt7N0vDfNKl86daED//roE4DUEDwEXggf4GQxb2CC+3KtWzZq69L2wYcNSmzZtdAkAAMAjBA82qlvXLnK5l1daNG+Ga8QBAOCHEDzYqB/1PqDXAQAAfgXBgw3zqvcBvQ4AAPArCB5smOfeB/Q6AACAdyB4sHHWvQ/odQAAAO9A8GDjLL0P6HUAAADvwjwPPohvbHPp0iW6eu0avXv7jj5++ig3svHrHj9+TPv27aNy5crpGr8tWNBgci+AOHHikL293Q/vAwC+D/M8BFyY5wF+BsHDH+I73C1fsZyOHXOmky4uFCVKFEqVMiWFDhOaggfzPwc1/hrwTXf8g89fPtO7d+/p5s2bdOXKFUqePBllypiJihYpQiVLlvjhJajg8xA8BFwIHuBnEDz8hg8fPqiAYQVNnjJFnbU/oTq1a1O2bA6UMUNGihQpol4L/ga+lfGp06dVEOdMy5evoOs3blCjhg2pQYP6FCN6dL0W+BYEDwEXggf4GeQ8mLRhwwZKkSo1LV26jHp0704Xzp1V/3ajAvnzI3D4B3j4ImuWLNSsaVPasX0brV3tSHfv3qV06dPTgIGD6PPnz3pNAADwKQgevOnZs+dUr34D6ti5Cy2YP4/WrV1DxYsVo8CB8RH6Jfb29jRxwng6fuwYHVM/OXLlotOnT+ulAADgE3Dk8wY++GTMnJkiRYpEzkePUK6cOfUS8Ktix45Na1Y7UssWLahY8RI0Z+5cvQQAAP4UgodfOHnS5f/t3QdQ1FceB/CvUQTEEcQZ4RTjjiDCGAMuNiIWLLmLHcUau9jHXrBcEvVsOUsuYsnEGgUVjeBcLKAoFvTQg/Uc57izoARiEEUU6XF0b9/zrW5MVBa5sGy+H4bZ//v9/6x/xRm+vPJ/6N6jJ9asWoW1a1ajRo0a6gxVBsOHDcPpU/FyCGPrtm2qSkREb4Ph4TV0ukvo2asX1oeFoW/fyrGMkX7J3d0dx2NjsHzFSmzeskVViYiorBgeXiHr7l0E9e2LTRs3oFevnqpKlVWjRo0QdyxWBojjcXGqSkREZcHw8AoTJ03GyJEj0KNHD1Whyk48TXPrls0YP2EicnNzVZWIiMzF8PArxOS6H37IwJ8XLlQVshadAgPRo3t3zJw1W1WIiMhcDA8vycl5gAULFmL71q2wsbFRVbImK5Yvw7nz53Hq9GlVISIic/AJky9ZtXoNrl69ii2bv1YVskbbtm/Hd4cOI/rAt6pCZVHfrQECOwXCtrqtqpC1eJibi9TUVPxLl6wqRC8wPJh48uQJPL28cWD/fvj6+qgqWaOioiK4ezTG+XMJ0Gg0qkrmEpNPMzMzVYusjZgn1C4gQLWIXmB4MBEVFY2w9esRf/KEqpA1mzd/vnxduWKFfCUiotLhnAcTB6KjMGrUSNX6/RL7d6Snp6uW9Ro5YgSiog+qFhERlRZ7HkyIIYvD3/0djRs3VpWK0a17DzjUdICriysSLyQi88dMBAUFoaCgANEHDyLj+zTUrFlTXV3+unT9EKNHj8KQwYNVpWzEfy1L3uZb3F9d1z/gv/9JQR1nZ1UlIqI3Yc+Dkn3/Ph4+fAAPDw9VqTgfffQn7I+MRNi6L+XSQrcGbvJ429Yt2Lp5M/INIeL/Ke74sbcODmLb8q8N92rJRLBp7usrt/MmIqLSY3hQxA6Mflo/i/hNWezH8CoiWDjXrq1awP2cHEPo+fkDj8QPbrEV9aNHj55vSZ2fny9fxTmxQ6hRXl6e/DT19OlTFBYWqtarv9ZI3INY4mpqbug8ZGVlqdYzjx8/lttli4mplsLPT2sIDzrVIiKi0mB4UG7dulXhwxVGjo6O6uiX7O3tUb16dRkM5sydi6ioKPQLDsa06TNkUFgXth7vajTYvmMHmr3vg6lTpyN03jx4NvHCsePHMWzECHh6eWHnrl34cl0YBg/5WJ47c/asfP/DR47Au+l7iNy3T4aGRYsXo36Dd+U8iCFDh8mvjYzcJ68VgSGoXzBiYmIwZdpUDB0+XNbFDPyT8fFISDgnHwctREcflMtgd3yzEz7NLecHtqenp/zeExGRGcScB9Lr16z9Qm/4IatalmNuaKi+tb+/ar0wddp0fUpKijxOT0/X29ja6U+dPq0vKSmRx+EREfrMO3f0N2/elPVaTrX1qamp8vp1YWH6Rh6N9RkZGbI9e84c/fCRI+Wx0NyvhX7b9u3y+MqVK/L9/pGYKNuGMKAP7NRZHu/f/62+c5eu8vj27dvyury8PNkW77d4yRJ5fCcrSz9k6FB5LEycNFnfvkNH1apYe/dG6g2hR7WIiKg02POgiK70qlWrqpbli46Olr0FYpfImNhYLF60CDUdaspeCTH00rJFC7i6uMh12qK3olq1anJzKMGtvhscHBzg5uYm2y4ursjLezY0Idjb26mjZz0dgp9WK1893N2RX/Ds2qCgPtgXGYmkpGSER+yWtZ9+eixfTR09ehS5D3PlvYrPJk2aoHfv3upsxRLfc+PQDhERlQ7Dg2JnZ4vi4hLVsnw5Dx6ga5cuGBsSIj/nzwuV4/dlZQiS6uj1RDAxXvvoUR6mTp+GrLtZCBkzRtb0ho+XieENRyfH5/c6beoUzJwxXZ2tWEXFRbC3exaQiIiodBgeFGdnZ9zLvqdals/b2wvrN2xUrWdbiP/WW01//tfP4VzbGd27dVOVF6oYPozEvR49GoObN2+qChAeEaGOKlZ29n3UNpmASkREb8bwoPj6+ECnu6RalkOsbsjNfaRaL8ycPsMQHjagT1Bf/GXpUowbNx4BbduiuLhY9gyIFRBGYuWEWOlgXOUgrhGfRuJRzUUmqysKCgqfnzf+2ca2+E29sLBIHoshEjEJU2wwJfaKEMLDI2RPQ61atXDu3Hns3rMHH/j7yyGTgHbtsWDhQoweE2IxKy50l3Tw8XlftYiIqDSqLjJQx79rderUwWeGf4oJ48fBzu7FmH9FOpuQIJdH+hiCTXZ2NjSahnLugtCs2Xto06YNbty4Ie932bKlcHJykqsatFot8vPz0FCjgf7pUyQmJspazv0cONV2wuXLl9G0aVMUlxTjnSpV5NMkGzZsKOc3pGekw7GWo3xPFxcXuYS1ZcuWeCCGHhxr4d8pKfD29pYBZdDAgYZwk4O7d+9h8qSJMkz4+7eBV5Mm8t7Ee3Vo30Hed//g/vJr0r5PQ+9evTBo0ED596hon3z6GaZNmYK6deuqChERvQmfMGkisFNnfPrpJwjs2FFVyJqJ5a6aRu64l3WnUk2WJSKqaBy2MNGuXQBiY2NVi6xdXNwJtGrZksGBiMhM7HkwkZaWhg/aBiD1xvXnSxTJenX98I8YP24cgoP7qQoREZUGex5MaDQatPH3x569e1WFrFVKSgquXb+OPn0s43kTRESVCcPDS8TEP7EEUuzvQNZrw8ZN8tkUxgmoRERUegwPL+ncqZPceErs+0DW6cLFizh06BAmTpygKkREZA7OefgVxrkPJ0/EwcvLS1XJGojnVbRo1RpLlyzhkAURURkxPLyC2INBPPjozKlTsLGxUVWq7OaGhuLHzEyE79ypKkREZC6Gh9cYOHiwnPuwOzycAcIKiO3KN27ahHMJZ1HH2VlViYjIXJzz8Brit1ORrQYN+Vg+3pkqL2NwiDsWy+BARPSWGB5eQ/Q27ImIQNWq76D/gIFyzwaqXETP0fIVK58HB+M25EREVHYMD28gAoQYtvDwcIe2RQscPnJEnSFLJ/b9EI8cj4+Px4njxxgciIjKCcNDKYhnAaxetQq7dn6DWbPnYEzIWGRkZKizZGny8/Ox9ou/oX2HjhgwoD+Oxcagfv366iwREb0thgcztAsIgC7pn3B1dUGr1m3Qr/8AxJ04IedFUMW7evUqZsycBQ9PT1y4eAEJZ89g8qRJqFKlirqCiIjKA1dblFFhYSH2RkZi01dfybkQrVu3gp/WD35+WrlltUONGrC1tVVXU3kSk1eLiouRdisNybpk6HSX5GvWnSyMGTMaY0NCUK9ePXU1ERGVN4aHcnDt2jUkJScjOVmHpKQkOdYufriVlJSwV6KciV4EMQ/Fzs4Wbm4NoG3eHFptcxncfH19uKSWiOg3wPBAREREZuGcByIiIjILwwMRERGZheGBiIiIzMLwQERERGZheCAiIiKzMDwQERGRGYD/Acwb6zidKXoeAAAAAElFTkSuQmCC;" vertex="1" parent="1">
          <mxGeometry x="30" y="-460" width="398" height="520" as="geometry" />
        </mxCell>
        <mxCell id="kfZYuw6HUx6iTTQ8oYZk-2" value="&lt;div&gt;&lt;font color=&quot;#000000&quot;&gt;Hybrid Evolutionary Algorithm applied to Automated Floor Plan Generation (2019)&lt;br&gt;&lt;/font&gt;&lt;/div&gt;&lt;div&gt;&lt;font color=&quot;#000000&quot;&gt;&lt;br&gt;&lt;/font&gt;&lt;/div&gt;&lt;div&gt;&lt;font color=&quot;#000000&quot;&gt;Floor plan generation through a mixed constraint programming-genetic optimization approach(2021)&lt;/font&gt;&lt;/div&gt;&lt;div&gt;&lt;font color=&quot;#000000&quot;&gt;&lt;br&gt;&lt;/font&gt;&lt;/div&gt;&lt;div&gt;&lt;font color=&quot;#000000&quot;&gt;Using genetic algorithm to automate the generation of an open-plan office layout (2021)&lt;/font&gt;&lt;br&gt;&lt;/div&gt;" style="text;strokeColor=none;align=left;fillColor=none;html=1;verticalAlign=middle;whiteSpace=wrap;rounded=0;labelBackgroundColor=#ff8040;" vertex="1" parent="1">
          <mxGeometry x="456" y="-265" width="840" height="160" as="geometry" />
        </mxCell>
      </root>
    </mxGraphModel>
  </diagram>
</mxfile>
